<svg xmlns="http://www.w3.org/2000/svg" width="698" height="81" viewBox="0 0 698 81" xmlns:xlink="http://www.w3.org/1999/xlink">
  <defs>
    <polygon id="a" points="0 80 696.666 80 696.666 0 0 0"/>
  </defs>
  <g fill="none" fill-rule="evenodd" transform="matrix(1 0 0 -1 0 80)">
    <path fill="#7fb7e8" d="M16.25,28.75 L16.25,28.57125 L50.89,28.57125 L50.89,50.21 L16.25,28.75 L16.25,28.75 Z M0.755,37.74375 L46.79375,65.705 L69.59,65.705 L69.59,28.57125 L79.11875,28.57125 L79.11875,14.145 L69.59,14.145 L69.59,1.23375 L50.89,1.23375 L50.89,14.145 L0.755,14.145 L0.755,37.74375 L0.755,37.74375 Z" transform="translate(2.925 3.238)"/>
    <mask id="b" fill="white">
      <use xlink:href="#a"/>
    </mask>
    <g transform="translate(87.5 1.25)" mask="url(#b)">
      <path fill="#000000" d="M11.25,45 L0.08,45 L0.08,51.98125 L11.25,51.98125 L11.25,64.04875 L19.8275,64.04875 L19.8275,51.98125 L53.8375,51.98125 L53.8375,45 L19.8275,45 L19.8275,19.6675 C19.8275,10.1925 23.11875,7.29875 32.49375,7.29875 L35.18625,7.29875 C46.55625,7.29875 48.35125,9.69375 48.35125,20.365 L48.35125,24.155 L55.33375,24.155 L55.33375,18.57 C55.33375,8.3975 54.33625,0.31875 35.785,0.31875 L31.0975,0.31875 C15.04,0.31875 11.25,8.0975 11.25,16.37625 L11.25,45 L11.25,45 Z" transform="translate(.768 2.105)"/>
      <path fill="#000000" d="M57.5,36.25 C57.5,41.43625 53.61,46.6225 39.6475,46.6225 L27.08125,46.6225 C13.51625,46.6225 10.325,44.4275 9.5275,32.85875 L57.5,32.85875 L57.5,36.25 L57.5,36.25 Z M0.95,33.05875 C0.95,51.51 13.71625,53.60375 25.88375,53.60375 L39.6475,53.60375 C55.00625,53.60375 66.0775,49.71375 66.0775,31.5625 L66.0775,25.8775 L9.5275,25.8775 L9.5275,22.685 C9.5275,11.1175 15.1125,8.12375 30.0725,8.12375 L41.84125,8.12375 C52.6125,8.12375 57.00125,9.52 57.5,17.30125 L66.0775,17.30125 L66.0775,16.3025 C66.0775,4.63375 56.4025,1.14375 40.445,1.14375 L24.88625,1.14375 C13.71625,1.14375 0.95,3.2375 0.95,21.9875 L0.95,33.05875 L0.95,33.05875 Z" transform="translate(62.974 1.28)"/>
      <path fill="#000000" d="M56.25,17.5 C56.25,24.48 50.06625,25.37875 36.90125,25.37875 L23.73625,25.37875 C12.665,25.37875 9.57375,23.7825 9.57375,17.4 L9.57375,15.80375 C9.57375,10.12 11.56875,7.725 23.3375,7.725 L34.7075,7.725 C50.265,7.725 56.25,8.82375 56.25,15.205 L56.25,17.5 L56.25,17.5 Z M56.25,6.62875 L56.05,6.62875 C53.75625,2.04125 51.06375,0.745 37.89875,0.745 L17.3525,0.745 C4.3875,0.745 0.99625,6.42875 0.99625,16.00375 L0.99625,19.395 C0.99625,30.96375 9.175,32.36 24.135,32.36 L37.89875,32.36 C49.06875,32.36 53.05875,31.16375 56.05,26.27625 L56.25,26.27625 L56.25,35.85125 C56.25,45.02625 50.465,46.22375 37.3,46.22375 L24.73375,46.22375 C13.9625,46.22375 11.8675,43.63 11.8675,39.44125 L11.8675,37.64625 L3.29,37.64625 L3.29,40.13875 C3.29,49.415 9.175,53.20375 24.53375,53.20375 L38.09875,53.20375 C54.05625,53.20375 64.8275,50.81125 64.8275,35.65125 L64.8275,1.54125 L56.25,1.54125 L56.25,6.62875 L56.25,6.62875 Z" transform="translate(136.343 1.68)"/>
      <path fill="#000000" d="M0,51.25 L7.97875,51.25 L7.97875,45.26625 L8.1775,45.26625 C11.77375,50.55125 14.89,52.0475 23.46625,52.0475 L35.56125,52.0475 C43.34,52.0475 47.55375,48.95625 50.24625,42.6725 C53.43875,49.555 58.55,52.0475 67.32625,52.0475 L75.93,52.0475 C89.6925,52.0475 96.40125,46.06375 96.40125,34.495 L96.40125,0.385 L87.82375,0.385 L87.82375,33.4975 C87.82375,39.38125 87,45.06625 73.33625,45.06625 L69.02375,45.06625 C53.565,45.06625 53.24,38.68375 53.24,30.505 L53.24,0.385 L44.66125,0.385 L44.66125,31.20375 C44.66125,41.0775 43.34,45.06625 29.67625,45.06625 L22.86875,45.06625 C11.89875,45.06625 8.5775,40.47875 8.5775,32.3 L8.5775,0.385 L-6.66133815e-15,0.385 L0,51.25 L0,51.25 Z" transform="translate(213.139 2.836)"/>
      <polygon fill="#000000" points="0 51.25 9.076 51.25 28.929 7.366 45.095 51.25 57.464 51.25 73.62 7.366 93.466 51.25 102.544 51.25 79.404 .385 67.536 .385 51.279 44.269 35.021 .385 23.14 .385" transform="translate(311.579 2.836)"/>
      <path fill="#000000" d="M57.5,32.5 C57.5,44.36875 51.225,46.6625 41.2525,46.6625 L25.56875,46.6625 C15.59625,46.6625 9.32125,44.36875 9.32125,32.5 L9.32125,22.3275 C9.32125,10.45875 15.59625,8.16375 25.56875,8.16375 L41.2525,8.16375 C51.225,8.16375 57.5,10.45875 57.5,22.3275 L57.5,32.5 L57.5,32.5 Z M0.745,32.99875 C0.745,49.755 11.905,53.64375 28.16125,53.64375 L38.66,53.64375 C54.91625,53.64375 66.07625,49.755 66.07625,32.99875 L66.07625,21.82875 C66.07625,5.07375 54.91625,1.18375 38.66,1.18375 L28.16125,1.18375 C11.905,1.18375 0.745,5.07375 0.745,21.82875 L0.745,32.99875 L0.745,32.99875 Z" transform="translate(413.732 1.24)"/>
      <path fill="#000000" d="M0,51.25 L7.97875,51.25 L7.97875,43.87 L8.17875,43.87 C11.37,50.4525 17.8525,52.0475 23.73625,52.0475 L30.75375,52.0475 C46.81125,52.0475 50.3275,46.86125 50.3275,34.395 L50.3275,28.31125 L42.34875,28.31125 L42.34875,30.505 C42.34875,43.0725 41.525,45.06625 26.26625,45.06625 L22.04125,45.06625 C12.965,45.06625 8.57625,39.28125 8.57625,32.7 L8.57625,0.385 L-1.11022302e-15,0.385 L0,51.25 L0,51.25 Z" transform="translate(488.95 2.836)"/>
      <polygon fill="#000000" points="0 72.5 8.578 72.5 8.578 31.907 12.766 31.907 42.388 51.156 55.754 51.156 55.953 50.958 20.845 28.418 62.634 .491 62.435 .291 49.07 .291 12.268 24.926 8.578 24.926 8.578 .291 0 .291" transform="translate(544.847 2.93)"/>
    </g>
  </g>
</svg>
