<svg xmlns="http://www.w3.org/2000/svg" viewBox="0 0 844.37 347.61"><defs><style>.cls-1,.cls-3{fill:#6e6f71;}.cls-2{fill:#8dc63f;}.cls-3{font-size:104.68px;font-family:Orbitron-Light, Orbitron;letter-spacing:-0.01em;}.cls-4{fill:#8cc541;}</style></defs><title>logo_89grad_gmbh_cmyk</title><g id="Ebene_2" data-name="Ebene 2"><g id="Layer_1" data-name="Layer 1"><text></text><text></text><path class="cls-1" d="M494.81,195.91A22.92,22.92,0,0,1,493,205a24.25,24.25,0,0,1-4.86,7.32,22,22,0,0,1-7.32,4.95,23.09,23.09,0,0,1-9,1.8h-36V203.33h36a7.46,7.46,0,0,0,7.42-7.42V175.56H405.6a22.33,22.33,0,0,1-8.94-1.81,23.24,23.24,0,0,1-12.26-12.27,22.2,22.2,0,0,1-1.81-8.93V88.25a22.22,22.22,0,0,1,1.81-8.94A23.24,23.24,0,0,1,396.65,67a22.36,22.36,0,0,1,8.94-1.81h66.19a23,23,0,0,1,9,1.81A22,22,0,0,1,488.15,72,24.2,24.2,0,0,1,493,79.32a22.39,22.39,0,0,1,1.8,8.94Zm-23-35.94a7.47,7.47,0,0,0,7.42-7.42V88.25a7.47,7.47,0,0,0-7.42-7.42H405.6a7.47,7.47,0,0,0-7.41,7.42v64.29A7.47,7.47,0,0,0,405.6,160Z"/><path class="cls-1" d="M591.23,65.24v15.6h-62a7.46,7.46,0,0,0-7.41,7.42v87.3h-15.6V88.25A22.29,22.29,0,0,1,508,79.32,23.22,23.22,0,0,1,520.29,67a22.28,22.28,0,0,1,8.93-1.81Z"/><path class="cls-1" d="M692.1,65.24A23.3,23.3,0,0,1,708.56,72a23.27,23.27,0,0,1,5,7.32,22.29,22.29,0,0,1,1.81,8.94v87.3h-89.4a22.33,22.33,0,0,1-8.94-1.81,23.2,23.2,0,0,1-7.32-4.95,23.49,23.49,0,0,1-4.94-7.32,22.26,22.26,0,0,1-1.8-8.93V112.6h96.61V88.25A7.31,7.31,0,0,0,697.43,83a7.06,7.06,0,0,0-5.33-2.19H602.9V65.24Zm7.41,63h-81v24.35a7.48,7.48,0,0,0,7.42,7.42h73.6Z"/><path class="cls-1" d="M839.45,29.1V175.56H750.25a22.77,22.77,0,0,1-9.13-1.81,23.18,23.18,0,0,1-12.26-12.27,22.15,22.15,0,0,1-1.81-8.93V88.25a22.18,22.18,0,0,1,1.81-8.94A23.17,23.17,0,0,1,741.12,67a22.8,22.8,0,0,1,9.13-1.81h73.61V29.1ZM816.44,160a7.48,7.48,0,0,0,7.42-7.42V88.25a7.48,7.48,0,0,0-7.42-7.42H750.25a7.48,7.48,0,0,0-7.42,7.42v64.29a7.48,7.48,0,0,0,7.42,7.42Z"/><path class="cls-2" d="M181,65.5q0,9.74-7.3,19.72,7.31,9.5,7.3,19.48V146.1a28.51,28.51,0,0,1-2.32,11.45,29.67,29.67,0,0,1-15.7,15.7,28.48,28.48,0,0,1-11.45,2.32H33.41a29.07,29.07,0,0,1-11.69-2.32,28.38,28.38,0,0,1-9.25-6.33,30.87,30.87,0,0,1-6.21-9.38A28.46,28.46,0,0,1,3.95,146.1V104.71q0-10,7.3-19.48-7.3-10-7.3-19.72V29.71A29.37,29.37,0,0,1,6.26,18.14a30.5,30.5,0,0,1,6.21-9.49,28.52,28.52,0,0,1,9.25-6.33A29.19,29.19,0,0,1,33.41,0H151.51a24.51,24.51,0,0,1,9.86,2.07A31.7,31.7,0,0,1,170,7.67a37.62,37.62,0,0,1,6.7,8A40.39,40.39,0,0,1,181,24.84ZM161,30a9.56,9.56,0,0,0-9.5-9.49H33.41A9.55,9.55,0,0,0,23.92,30V68.42a9.55,9.55,0,0,0,9.49,9.49H151.51a9.56,9.56,0,0,0,9.5-9.49Zm0,74.75a9.56,9.56,0,0,0-9.5-9.5H33.41a9.55,9.55,0,0,0-9.49,9.5V146.1a9.55,9.55,0,0,0,9.49,9.5H151.51a9.56,9.56,0,0,0,9.5-9.5Z"/><path class="cls-2" d="M223.17,101.3A29.1,29.1,0,0,1,211.48,99a29.77,29.77,0,0,1-15.71-15.71,28.49,28.49,0,0,1-2.31-11.44V29.71A29.85,29.85,0,0,1,202.1,8.65a30,30,0,0,1,9.38-6.33A29.16,29.16,0,0,1,223.17,0h118.1A28.6,28.6,0,0,1,352.7,2.31a29.9,29.9,0,0,1,9.37,6.33,29.87,29.87,0,0,1,8.65,21.06V146.1a28.51,28.51,0,0,1-2.31,11.45,29.73,29.73,0,0,1-15.7,15.7,28.48,28.48,0,0,1-11.44,2.32H223.17a29.42,29.42,0,0,1-28-20h146.1a9.56,9.56,0,0,0,9.49-9.5v-35.3a9.56,9.56,0,0,0-9.49-9.5Zm-9.49-29.46a9.56,9.56,0,0,0,9.49,9.5H350.76V29.71a9.56,9.56,0,0,0-9.49-9.5H223.17a9.55,9.55,0,0,0-9.49,9.5Z"/><path class="cls-2" d="M506.17,203.17H839.59a22.93,22.93,0,0,1-9.84,11.15,30.48,30.48,0,0,1-16.19,4.35H506.17"/><path class="cls-2" d="M423.58,218.86H409.16a30.31,30.31,0,0,1-16.32-4.46A23.5,23.5,0,0,1,382.91,203h40.67"/><circle class="cls-4" cx="501.94" cy="99.31"/></g></g></svg>