<?xml version="1.0" encoding="UTF-8" standalone="no"?>
<svg
   xmlns:dc="http://purl.org/dc/elements/1.1/"
   xmlns:cc="http://creativecommons.org/ns#"
   xmlns:rdf="http://www.w3.org/1999/02/22-rdf-syntax-ns#"
   xmlns:svg="http://www.w3.org/2000/svg"
   xmlns="http://www.w3.org/2000/svg"
   viewBox="0 0 466.33334 57.253334"
   height="57.253334"
   width="466.33334"
   xml:space="preserve"
   id="svg2"
   version="1.1"><metadata
     id="metadata8"><rdf:RDF><cc:Work
         rdf:about=""><dc:format>image/svg+xml</dc:format><dc:type
           rdf:resource="http://purl.org/dc/dcmitype/StillImage" /></cc:Work></rdf:RDF></metadata><defs
     id="defs6" /><g
     transform="matrix(1.3333333,0,0,-1.3333333,0,57.253333)"
     id="g10"><g
       transform="scale(0.1)"
       id="g12"><path
         id="path14"
         style="fill:#46ae33;fill-opacity:1;fill-rule:nonzero;stroke:none"
         d="m 1477.07,256.484 c 0,17.774 3.57,32.161 10.73,43.164 7.16,10.997 16.85,19.668 29.08,26.016 12.2,6.359 26.19,10.684 41.98,13.008 15.8,2.324 32.55,3.496 50.24,3.496 18.93,0 36.62,-2.637 53.05,-7.871 16.41,-5.262 31.58,-14.617 45.49,-28.074 3.77,-3.379 6.93,-6.848 9.47,-10.422 2.55,-3.594 1.49,-7.5 -3.14,-11.707 l -18.33,-18.985 c -3.37,-2.968 -6.01,-4.55 -7.92,-4.765 -1.87,-0.227 -4.5,1.375 -7.88,4.765 -3.37,3.379 -6.95,6.844 -10.73,10.43 -3.79,3.602 -8.02,6.445 -12.65,8.555 -8,4.207 -15.79,6.863 -23.36,7.918 -7.6,1.047 -15.58,1.601 -24,1.601 -8.86,0 -18.11,-0.234 -27.79,-0.644 -9.7,-0.43 -18.42,-1.805 -26.22,-4.129 -7.79,-2.324 -14.31,-5.918 -19.57,-10.781 -5.27,-4.864 -7.9,-11.954 -7.9,-21.262 -0.43,-13.113 4.09,-23.477 13.54,-31.102 9.44,-7.617 21.22,-14.074 35.29,-19.355 14.06,-5.305 29.38,-10.254 45.99,-14.926 16.61,-4.644 31.94,-10.672 46.01,-18.074 14.06,-7.41 25.83,-17.039 35.29,-28.895 9.44,-11.836 14.18,-27.492 14.18,-46.9723 0,-17.336 -3.57,-32.0313 -10.72,-44.0938 -7.13,-12.0703 -16.8,-21.6875 -28.97,-28.8672 -12.19,-7.1953 -26.28,-12.3711 -42.21,-15.5742 -15.98,-3.14844 -32.56,-4.73828 -49.79,-4.73828 -21.43,0 -41.47,1.98437 -60.16,5.99608 -18.69,3.9961 -36.03,13.957 -51.96,29.9414 h -0.66 c -3.37,4.211 -6.54,7.7852 -9.5,10.7422 -2.96,2.9414 -1.89,6.75 3.18,11.3867 l 18.96,18.9961 c 2.95,2.9492 5.39,4.5274 7.26,4.7461 1.9,0.2149 4.54,-1.3594 7.91,-4.7461 3.37,-3.3789 6.95,-6.8554 10.75,-10.4492 3.78,-3.5937 7.99,-6.4453 12.63,-8.5469 10.07,-5.5078 20.13,-8.4453 30.2,-8.8554 10.08,-0.4493 20.56,-0.6368 31.46,-0.6368 8.8,0 17.94,0.4024 27.38,1.25 9.43,0.8399 18.25,2.8633 26.43,6.0274 8.17,3.1719 14.98,7.6133 20.43,13.3476 5.45,5.6954 8.38,13.625 8.81,23.8008 -0.43,12.2458 -5.37,21.7578 -14.82,28.5428 -9.46,6.77 -21.34,12.598 -35.63,17.473 -14.27,4.844 -29.72,9.5 -46.32,13.945 -16.6,4.434 -31.95,10.567 -46.03,18.418 -14.07,7.813 -25.85,17.977 -35.3,30.457 -9.46,12.481 -14.18,29.297 -14.18,50.449" /><path
         id="path16"
         style="fill:#46ae33;fill-opacity:1;fill-rule:nonzero;stroke:none"
         d="m 1761.7,214.082 c 0,17.324 3.38,33.828 10.16,49.453 6.76,15.645 15.96,29.278 27.58,40.91 11.62,11.61 25.25,20.821 40.88,27.586 15.62,6.758 32.28,10.137 50.04,10.137 h 46.85 c 16.9,0 32.83,-3.055 47.83,-9.148 15,-6.094 28.38,-14.825 40.24,-26.165 4.63,-3.777 8.22,-7.351 10.74,-10.742 2.52,-3.367 1.7,-7.371 -2.52,-12.019 l -19.63,-18.371 c -2.97,-2.95 -5.29,-4.532 -6.99,-4.746 -1.7,-0.215 -4.24,1.378 -7.6,4.746 -9.28,8.449 -19.1,15.195 -29.43,20.285 -10.35,5.058 -21.43,7.605 -33.26,7.605 h -46.23 c -7.21,0 -13.71,-0.75 -19.65,-2.234 -5.9,-1.484 -12.23,-3.926 -18.99,-7.316 -12.26,-7.196 -22.07,-16.415 -29.45,-27.637 -7.38,-11.238 -11.5,-24.043 -12.34,-38.438 h -0.65 v -89.617 h 1 c 0.84,-14.406 4.94,-27.226 12.34,-38.4374 7.38,-11.2305 17.21,-20.4492 29.46,-27.6367 6.75,-3.3985 13.06,-5.8399 19,-7.336 5.9,-1.4531 12.44,-2.1875 19.63,-2.1875 h 46.23 c 13.49,0.8399 24.92,3.6719 34.24,8.5469 9.25,4.8633 18.77,11.082 28.47,18.6914 3.38,3.3672 5.9,5.0664 7.6,5.0664 1.68,0 4.02,-1.6992 6.95,-5.0664 l 19.67,-17.7461 c 4.2,-5.5078 4.85,-9.8242 1.88,-12.957 -2.95,-3.1641 -6.33,-6.4258 -10.14,-9.7969 -11.84,-11.3554 -25.21,-20.0781 -40.21,-26.1601 -14.98,-6.09379 -30.94,-9.15238 -47.84,-9.15238 h -46.85 c -17.74,0 -34.42,3.39844 -50.02,10.13668 -15.65,6.7696 -29.32,16.0743 -41,27.8907 -11.7,11.8281 -20.95,25.4687 -27.77,40.8906 -6.82,15.4297 -10.22,32.0468 -10.22,49.8048 v 81.16" /><path
         id="path18"
         style="fill:#46ae33;fill-opacity:1;fill-rule:nonzero;stroke:none"
         d="m 2079.81,115.266 c 0,9.316 1.99,19.257 6,29.824 4,10.566 10.46,20.312 19.31,29.187 8.87,8.879 20.61,16.301 35.16,22.227 14.55,5.91 32.62,8.887 54.14,8.887 h 65.19 c 9.71,0 19.42,-0.321 29.13,-0.957 9.7,-0.625 18.35,-3.262 25.97,-7.918 v 21.57 c 0,13.547 -4.1,26.328 -12.34,38.398 -8.22,12.051 -18.07,21.25 -29.45,27.598 -12.68,6.348 -25.34,9.531 -38.01,9.531 h -34.2 c -13.5,0 -26.17,-3.183 -37.99,-9.519 -5.08,-2.11 -9.51,-4.836 -13.3,-8.223 -3.81,-3.371 -7.38,-6.965 -10.76,-10.762 -3.38,-3.39 -6.04,-5.078 -7.93,-5.078 -1.92,0 -4.34,1.688 -7.29,5.078 l -18.98,18.985 c -2.97,2.539 -4.55,4.765 -4.77,6.66 -0.21,1.894 1.39,4.531 4.77,7.91 0.84,1.25 1.99,2.41 3.47,3.465 1.45,1.047 2.86,2.41 4.13,4.094 11.79,11.347 25.41,20.164 40.82,26.484 15.41,6.309 31.17,9.461 47.2,9.461 h 35.45 c 17.33,0 33.69,-3.379 49.1,-10.137 15.43,-6.765 28.97,-15.976 40.65,-27.586 11.7,-11.613 20.96,-25.234 27.79,-40.871 6.82,-15.633 10.22,-32.117 10.22,-49.433 V 8.16406 h -24.93 c -9.39,0 -15.46,2.92974 -18.22,8.80864 -2.77,5.8711 -4.57,12.5898 -5.43,20.1367 -9.29,-9.2852 -21.29,-17.0977 -36.07,-23.4258 -14.79,-6.3086 -29.16,-9.48438 -43.09,-9.48438 h -27.83 c -17.73,0 -34.34,2.44141 -49.73,7.28518 -15.41,4.875 -28.92,12.082 -40.5,21.6015 -11.65,9.5118 -20.79,21.1446 -27.54,34.9141 -6.78,13.7383 -10.14,29.4727 -10.14,47.266 z m 234.9,17.793 c 0,6.328 -0.96,11.093 -2.87,14.285 -1.89,3.164 -5.06,5.488 -9.51,6.984 -4.43,1.461 -10.27,2.305 -17.46,2.539 -7.19,0.215 -15.84,0.508 -26.02,0.957 h -64.67 c -8.47,-0.449 -16.52,-1.386 -24.14,-2.883 -7.61,-1.472 -14.27,-3.796 -19.96,-6.972 -5.74,-3.172 -10.29,-7.41 -13.65,-12.723 -3.4,-5.293 -5.1,-11.973 -5.1,-19.992 0,-19.0821 6.23,-34.6563 18.71,-46.7267 12.5,-12.082 31.64,-18.3203 57.45,-18.7421 h 27.26 c 9.32,0 18.71,1.2812 28.24,3.8281 9.51,2.5312 18.09,6.1133 25.69,10.7812 7.61,4.6602 13.88,10.2735 18.73,16.836 4.86,6.5742 7.3,14.3086 7.3,23.2035 v 28.625" /><path
         id="path20"
         style="fill:#46ae33;fill-opacity:1;fill-rule:nonzero;stroke:none"
         d="m 2457.6,18.9141 c 0,-4.6368 -0.62,-7.586 -1.89,-8.8633 -1.29,-1.26174 -4.01,-1.88674 -8.22,-1.88674 h -30.32 c -4.2,0 -6.95,0.625 -8.22,1.88674 -1.27,1.2773 -1.87,4.2265 -1.87,8.8633 V 419.27 c 0,4.628 0.6,7.48 1.87,8.535 1.27,1.054 4.02,1.59 8.22,1.59 h 30.32 c 4.21,0 6.93,-0.536 8.22,-1.59 1.27,-1.055 1.89,-3.907 1.89,-8.535 V 18.9141" /><path
         id="path22"
         style="fill:#46ae33;fill-opacity:1;fill-rule:nonzero;stroke:none"
         d="m 2605.14,156.836 c -5.04,0 -10.82,-0.106 -17.32,-0.34 -6.53,-0.215 -12.52,-1.152 -17.97,-2.844 -5.45,-1.687 -10,-4.422 -13.56,-8.23 -3.57,-3.801 -5.35,-9.492 -5.35,-17.09 2.11,-21.113 10.3,-39.1718 24.61,-54.1523 14.26,-15 32.58,-23.1133 54.87,-24.3945 h 46.05 c 14.26,0 25.74,2.8515 34.36,8.5468 8.61,5.7032 17.77,13.3985 27.44,23.1133 3.38,3.3789 6.11,4.9531 8.22,4.7383 2.11,-0.1953 4.43,-1.7969 6.97,-4.7383 l 19.65,-18.9922 c 4.63,-5.0703 5.35,-9.0742 2.21,-12.0429 -3.17,-2.9375 -6.45,-6.543 -9.83,-10.7618 -12.22,-11.3867 -25.95,-20.1445 -41.15,-26.2695 -15.21,-6.12109 -31.05,-9.17968 -47.52,-9.17968 h -46.87 c -17.72,0 -34.4,3.39844 -50.02,10.13668 -15.65,6.7696 -29.26,16.0743 -40.86,27.8907 -11.62,11.8281 -20.82,25.4687 -27.54,40.8906 -6.76,15.4297 -10.14,32.0468 -10.14,49.8048 v 79.891 c 0,17.746 3.38,34.453 10.14,50.097 6.76,15.637 15.96,29.387 27.58,41.211 11.64,11.836 25.29,21.145 40.91,27.91 15.65,6.758 32.35,10.137 50.1,10.137 h 27.89 c 17.31,0 33.73,-3.379 49.14,-10.145 15.43,-6.789 28.85,-16.093 40.3,-27.949 11.38,-11.847 20.5,-25.605 27.26,-41.25 6.76,-15.664 10.14,-32.363 10.14,-50.136 v -40 c 0,-2.95 -2.46,-6.329 -7.36,-10.157 -4.89,-3.789 -9.69,-5.695 -14.38,-5.695 h -26.82 z m 131.15,55.852 c -0.86,31.863 -14.74,55.644 -41.7,71.367 -12.2,6.355 -24.84,9.558 -37.89,9.558 h -26.52 c -8.42,0 -16.35,-0.437 -23.71,-1.277 -7.36,-0.852 -14.39,-3.606 -21.13,-8.281 -11.39,-8.496 -20.02,-18.996 -25.9,-31.516 -5.9,-12.539 -9.08,-25.801 -9.49,-39.812 v -21.641 c 5.88,2.957 11.05,5.281 15.47,6.973 4.43,1.687 9.04,3.066 13.9,4.121 4.85,1.054 10.31,1.687 16.43,1.902 6.07,0.215 13.77,0.313 23.04,0.313 h 117.5 v 8.293" /><path
         id="path24"
         style="fill:#04517d;fill-opacity:1;fill-rule:nonzero;stroke:none"
         d="M 2876.14,51.9844 V 19.8047 c 0,-4.3359 -0.78,-7.3711 -2.33,-9.1016 -1.56,-1.68747 -4.55,-2.53904 -8.9,-2.53904 h -27.17 c -4.38,0 -7.58,0.85157 -9.61,2.53904 -2.01,1.7305 -3.03,4.7657 -3.03,9.1016 v 32.1797 c 0,4.3554 1.02,7.2929 3.03,8.8554 2.03,1.543 5.23,2.3438 9.61,2.3438 h 27.17 c 4.35,0 7.34,-0.8008 8.9,-2.3438 1.55,-1.5625 2.33,-4.5 2.33,-8.8554" /><path
         id="path26"
         style="fill:#04517d;fill-opacity:1;fill-rule:nonzero;stroke:none"
         d="m 2909.44,214.082 c 0,17.324 3.36,33.828 10.14,49.453 6.77,15.645 15.97,29.278 27.61,40.91 11.6,11.61 25.24,20.821 40.88,27.586 15.61,6.758 32.27,10.137 50.02,10.137 h 46.88 c 16.87,0 32.83,-3.055 47.81,-9.148 15,-6.094 28.4,-14.825 40.21,-26.165 4.67,-3.777 8.25,-7.351 10.78,-10.742 2.54,-3.367 1.68,-7.371 -2.52,-12.019 l -19.64,-18.371 c -2.97,-2.95 -5.28,-4.532 -6.98,-4.746 -1.7,-0.215 -4.21,1.378 -7.59,4.746 -9.3,8.449 -19.12,15.195 -29.48,20.285 -10.33,5.058 -21.42,7.605 -33.26,7.605 h -46.21 c -7.19,0 -13.71,-0.75 -19.65,-2.234 -5.9,-1.484 -12.22,-3.926 -18.98,-7.316 -12.25,-7.196 -22.07,-16.415 -29.46,-27.637 -7.4,-11.238 -11.5,-24.043 -12.34,-38.438 h -0.64 v -89.617 h 0.99 c 0.84,-14.406 4.94,-27.226 12.35,-38.4374 7.38,-11.2305 17.2,-20.4492 29.45,-27.6367 6.76,-3.3985 13.09,-5.8399 19.02,-7.336 5.9,-1.4531 12.42,-2.1875 19.63,-2.1875 h 46.21 c 13.54,0.8399 24.92,3.6719 34.22,8.5469 9.3,4.8633 18.79,11.082 28.5,18.6914 3.38,3.3672 5.9,5.0664 7.61,5.0664 1.68,0 4.01,-1.6992 6.96,-5.0664 l 19.63,-17.7461 c 4.22,-5.5078 4.86,-9.8242 1.87,-12.957 -2.93,-3.1641 -6.31,-6.4258 -10.1,-9.7969 -11.83,-11.3554 -25.23,-20.0781 -40.23,-26.1601 -14.98,-6.09379 -30.94,-9.15238 -47.83,-9.15238 h -46.84 c -17.75,0 -34.45,3.39844 -50.04,10.13668 -15.62,6.7696 -29.27,16.0743 -40.97,27.8907 -11.72,11.8281 -20.98,25.4687 -27.8,40.8906 -6.79,15.4297 -10.21,32.0468 -10.21,49.8048 v 81.16" /><path
         id="path28"
         style="fill:#04517d;fill-opacity:1;fill-rule:nonzero;stroke:none"
         d="m 3217.08,419.875 c 0,4.219 0.7,6.875 2.18,7.93 1.51,1.054 4.14,1.59 7.93,1.59 h 27.29 c 4.22,0 6.99,-0.536 8.24,-1.59 1.27,-1.055 1.91,-3.711 1.91,-7.93 V 293.203 c 11.02,15.254 24.18,27.227 39.44,35.93 15.27,8.68 30.76,13.035 46.48,13.035 h 18.44 c 17.81,0 34.57,-3.496 50.25,-10.469 15.75,-6.961 29.3,-16.258 40.75,-27.871 11.44,-11.621 20.58,-25.254 27.38,-40.887 6.78,-15.644 10.17,-32.121 10.17,-49.433 V 19.5703 c 0,-4.6562 -0.76,-7.7031 -2.24,-9.1992 -1.47,-1.47266 -4.57,-2.20704 -9.24,-2.20704 h -26.21 c -4.26,0 -7.17,0.73438 -8.63,2.20704 -1.49,1.4961 -2.23,4.543 -2.23,9.1992 V 217.48 c -0.86,14.797 -5,27.696 -12.4,38.692 -7.42,10.996 -17.29,20.09 -29.57,27.285 -12.27,6.758 -25.43,10.156 -39.4,10.156 h -16.52 c -8.48,-0.437 -17.72,-2.761 -27.68,-6.992 -9.98,-4.226 -19.27,-9.941 -27.99,-17.129 -8.67,-7.187 -15.97,-15.633 -21.91,-25.359 -5.92,-9.738 -8.89,-20.313 -8.89,-31.719 V 19.5703 c 0,-4.6562 -0.64,-7.7031 -1.91,-9.1992 -1.25,-1.47266 -4.02,-2.20704 -8.24,-2.20704 h -27.29 c -3.79,0 -6.42,0.73438 -7.93,2.20704 -1.48,1.4961 -2.18,4.5312 -2.18,9.1797 V 419.875" /><path
         id="path30"
         style="fill:#04517d;fill-opacity:1;fill-rule:nonzero;stroke:none"
         d="m 0,214.082 c 0,17.324 3.375,33.828 10.1484,49.453 6.7657,15.645 15.9649,29.278 27.5899,40.91 11.6211,11.61 25.25,20.821 40.8711,27.586 15.6133,6.758 32.2926,10.137 50.0356,10.137 h 46.863 c 16.887,0 32.836,-3.055 47.828,-9.148 14.984,-6.094 28.387,-14.825 40.219,-26.165 4.644,-3.777 8.222,-7.351 10.754,-10.742 2.546,-3.367 1.691,-7.371 -2.512,-12.019 l -19.641,-18.371 c -2.957,-2.95 -5.285,-4.532 -6.965,-4.746 -1.711,-0.215 -4.238,1.378 -7.601,4.746 -9.301,8.449 -19.113,15.195 -29.465,20.285 -10.348,5.058 -21.422,7.605 -33.246,7.605 h -46.234 c -7.18,0 -13.719,-0.75 -19.637,-2.234 -5.922,-1.484 -12.2463,-3.926 -18.9963,-7.316 C 77.7539,276.867 67.9414,267.648 60.5547,256.426 53.168,245.188 49.0469,232.383 48.207,217.988 h -0.6328 v -89.617 h 0.9961 c 0.836,-14.406 4.9492,-27.226 12.3438,-38.4374 7.3867,-11.2305 17.1992,-20.4492 29.4531,-27.6367 6.7461,-3.3985 13.0858,-5.8399 18.9918,-7.336 5.922,-1.4531 12.457,-2.1875 19.645,-2.1875 h 46.226 c 13.504,0.8399 24.915,3.6719 34.219,8.5469 9.285,4.8633 18.789,11.082 28.485,18.6914 3.375,3.3672 5.906,5.0664 7.601,5.0664 1.695,0 4.016,-1.6992 6.969,-5.0664 l 19.641,-17.7461 c 4.21,-5.5078 4.851,-9.8242 1.886,-12.957 -2.945,-3.1641 -6.328,-6.4258 -10.129,-9.7969 C 252.078,28.1563 238.684,19.4336 223.688,13.3516 208.699,7.25781 192.742,4.19922 175.867,4.19922 h -46.863 c -17.742,0 -34.422,3.39844 -50.0392,10.13668 C 63.3359,21.1055 49.6758,30.4102 37.9922,42.2266 26.2852,54.0547 17.0352,67.6953 10.2148,83.1172 3.40625,98.5469 0,115.164 0,132.922 v 81.16" /><path
         id="path32"
         style="fill:#04517d;fill-opacity:1;fill-rule:nonzero;stroke:none"
         d="m 368.637,18.9141 c 0,-4.6368 -0.625,-7.586 -1.895,-8.8633 -1.277,-1.26174 -4.004,-1.88674 -8.211,-1.88674 h -30.324 c -4.207,0 -6.953,0.625 -8.223,1.88674 -1.269,1.2773 -1.894,4.2265 -1.894,8.8633 V 419.27 c 0,4.628 0.625,7.48 1.894,8.535 1.27,1.054 4.016,1.59 8.223,1.59 h 30.324 c 4.207,0 6.934,-0.536 8.211,-1.59 1.27,-1.055 1.895,-3.907 1.895,-8.535 V 18.9141" /><path
         id="path34"
         style="fill:#04517d;fill-opacity:1;fill-rule:nonzero;stroke:none"
         d="M 1029.46,39.0234 C 1021,26.7695 1009.38,17.9102 994.594,12.4219 979.789,6.94531 965.004,4.19922 950.219,4.19922 H 930.57 c -17.773,0 -34.461,3.39844 -50.117,10.13668 -15.633,6.7696 -29.148,15.9375 -40.566,27.5704 -11.414,11.6093 -20.508,25.1445 -27.254,40.5664 -6.77,15.4179 -10.137,31.9923 -10.137,49.7543 v 195.207 c 0,4.636 0.723,7.597 2.207,8.875 1.485,1.269 4.121,1.894 7.93,1.894 h 27.285 c 3.789,0 6.426,-0.625 7.918,-1.894 1.484,-1.278 2.219,-4.239 2.219,-8.875 V 132.832 c 0.418,-11.434 2.636,-22.078 6.668,-32.019 4.015,-9.9419 9.504,-18.7114 16.476,-26.3091 6.973,-7.5976 15.301,-13.6328 25.028,-18.0586 9.726,-4.4336 20.285,-6.6601 31.718,-6.6601 h 19.024 c 10.117,0 20.051,1.164 29.765,3.4765 9.727,2.336 18.391,6.0078 25.996,11.0938 7.6,5.0781 13.62,12.0429 18.08,20.9297 4.42,8.8554 6.65,20.0588 6.65,33.6018 v 208.547 c 0,4.636 0.75,7.597 2.23,8.875 1.49,1.269 4.37,1.894 8.63,1.894 h 27.49 c 4.25,0 7.01,-0.625 8.29,-1.894 1.28,-1.278 1.93,-4.219 1.93,-8.868 V 19.5508 c 0,-4.6485 -0.65,-7.6836 -1.93,-9.1797 -1.28,-1.47266 -4.04,-2.20704 -8.29,-2.20704 h -27.49 c -4.26,0 -7.14,0.73438 -8.63,2.18754 -1.48,1.4961 -2.23,4.5234 -2.23,9.1523 v 19.5195" /><path
         id="path36"
         style="fill:#04517d;fill-opacity:1;fill-rule:nonzero;stroke:none"
         d="m 1420.16,8.16406 h -25.37 c -8.89,0 -14.82,2.92974 -17.78,8.80864 -2.96,5.8711 -4.43,12.3632 -4.43,19.5234 -12.28,-10.1367 -25.62,-18.0469 -40.01,-23.75 -14.37,-5.69532 -29.41,-8.54688 -45.06,-8.54688 h -37.47 c -17.77,0 -34.48,3.39844 -50.13,10.13668 -15.68,6.7696 -29.22,15.8399 -40.65,27.2657 -11.42,11.4062 -20.52,24.8359 -27.29,40.2539 -6.77,15.4297 -10.15,32.0235 -10.15,49.7965 v 81.797 c 0,17.754 3.38,34.344 10.15,49.766 6.77,15.437 15.87,29.082 27.29,40.906 11.43,11.836 24.97,21.145 40.65,27.91 15.65,6.758 32.36,10.137 50.13,10.137 h 37.47 c 15.65,0 31,-4.355 46.03,-13.047 15.01,-8.711 28.03,-20.703 39.04,-35.957 V 419.25 c 0,4.648 0.73,7.5 2.21,8.555 1.5,1.054 4.12,1.59 7.93,1.59 h 27.29 c 3.8,0 6.43,-0.536 7.91,-1.59 1.5,-1.055 2.24,-3.907 2.24,-8.535 z M 1372.58,136.125 v 72.402 c 0,13.965 -2.96,26.231 -8.88,36.825 -5.92,10.566 -13.21,19.355 -21.85,26.328 -8.68,7.004 -17.98,12.402 -27.9,16.203 -9.95,3.816 -18.92,5.73 -26.93,5.73 h -35.51 c -10.99,0 -21.13,-1.914 -30.42,-5.73 -9.29,-3.801 -17.64,-9.094 -25.04,-15.871 -7.41,-6.778 -13.33,-14.707 -17.75,-23.817 -4.43,-9.101 -7.08,-19.152 -7.92,-30.148 v -90.164 c 0.84,-11.008 3.59,-21.172 8.24,-30.4807 4.65,-9.3242 10.55,-17.4609 17.75,-24.4531 7.18,-6.9804 15.54,-12.4687 25.05,-16.5039 9.5,-4.0234 19.74,-6.2383 30.74,-6.6601 h 35.49 c 6.33,0.4218 14.24,1.3671 23.76,2.8515 9.51,1.4766 18.8,4.5508 27.88,9.1992 9.08,4.668 16.91,11.5352 23.46,20.6446 6.54,9.0937 9.83,21.2815 9.83,36.5155 v 17.129" /><path
         id="path38"
         style="fill:#46ae33;fill-opacity:1;fill-rule:nonzero;stroke:none"
         d="m 660.395,252.168 c -19.594,17.531 -45.336,28.301 -73.707,28.301 -61.293,0 -110.997,-49.688 -110.997,-110.985 0,-5.656 0.438,-11.23 1.25,-16.64 -0.046,1.347 -0.086,2.695 -0.086,4.062 0,43.914 35.606,79.52 79.512,79.52 21.914,0 41.613,-8.992 55.946,-23.367 l 48.082,39.109" /><path
         id="path40"
         style="fill:#04517d;fill-opacity:1;fill-rule:nonzero;stroke:none"
         d="m 614.859,176.32 57.676,70.918 c 2.266,2.266 2.266,5.918 0,8.172 -2.258,2.258 -5.914,2.258 -8.16,0 l -70.93,-57.695 c -7.078,0.762 -14.422,-1.531 -19.84,-6.961 -9.484,-9.465 -9.484,-24.816 0,-34.277 9.477,-9.473 24.825,-9.473 34.278,0 5.422,5.429 7.719,12.773 6.976,19.843 z m -32.765,-11.359 c -4.774,4.777 -4.774,12.531 0,17.297 4.761,4.805 12.531,4.805 17.297,0 4.773,-4.766 4.773,-12.52 0,-17.297 -4.766,-4.754 -12.536,-4.754 -17.297,0" /><path
         id="path42"
         style="fill:#04517d;fill-opacity:1;fill-rule:nonzero;stroke:none"
         d="m 585.574,346.289 c -95.476,0 -173.148,-77.664 -173.148,-173.133 C 412.426,77.6641 490.098,0 585.574,0 c 95.461,0 173.137,77.6641 173.137,173.156 0,95.469 -77.676,173.133 -173.137,173.133 z m 0,-301.6796 c -70.871,0 -128.527,57.6676 -128.527,128.5466 0,70.867 57.656,128.524 128.527,128.524 70.871,0 128.528,-57.657 128.528,-128.524 0,-70.879 -57.657,-128.5466 -128.528,-128.5466" /></g></g></svg>