<?xml version="1.0" encoding="UTF-8" standalone="no"?>
<svg width="442px" height="250px" viewBox="0 0 442 250" version="1.1" xmlns="http://www.w3.org/2000/svg" xmlns:xlink="http://www.w3.org/1999/xlink" xmlns:sketch="http://www.bohemiancoding.com/sketch/ns">
    <!-- Generator: Sketch 3.3.3 (12072) - http://www.bohemiancoding.com/sketch -->
    <title>Swiss Python Summit Logo with Text</title>
    <desc>Created with Sketch.</desc>
    <defs>
        <linearGradient x1="49.9999998%" y1="82.2756107%" x2="23.4426562%" y2="44.914431%" id="linearGradient-1">
            <stop stop-color="#FFD43B" offset="0%"></stop>
            <stop stop-color="#FFE873" offset="100%"></stop>
        </linearGradient>
        <linearGradient x1="1.06341024e-07%" y1="9.14856261e-08%" x2="74.5209927%" y2="64.1103734%" id="linearGradient-2">
            <stop stop-color="#5A9FD4" offset="0%"></stop>
            <stop stop-color="#306998" offset="100%"></stop>
        </linearGradient>
        <linearGradient x1="50%" y1="0%" x2="50%" y2="100%" id="linearGradient-3">
            <stop stop-color="#FBB161" offset="0%"></stop>
            <stop stop-color="#F76B1C" offset="100%"></stop>
        </linearGradient>
        <linearGradient x1="50%" y1="0%" x2="50%" y2="100%" id="linearGradient-4">
            <stop stop-color="#131D24" offset="0%"></stop>
            <stop stop-color="#3F7CAE" offset="100%"></stop>
        </linearGradient>
    </defs>
    <g id="Page-1" stroke="none" stroke-width="1" fill="none" fill-rule="evenodd" sketch:type="MSPage">
        <g id="Swiss-Python-Summit-Logo-with-Text" sketch:type="MSArtboardGroup">
            <path d="M265.28125,81.6953125 C265.28125,84.7422027 264.179699,87.1328038 261.976562,88.8671875 C259.773426,90.6015712 256.734394,91.46875 252.859375,91.46875 C248.984356,91.46875 245.812512,90.8671935 243.34375,89.6640625 L243.34375,84.3671875 C244.906258,85.1015662 246.566397,85.6796854 248.324219,86.1015625 C250.08204,86.5234396 251.718742,86.734375 253.234375,86.734375 C255.453136,86.734375 257.089838,86.3125042 258.144531,85.46875 C259.199224,84.6249958 259.726562,83.4921946 259.726562,82.0703125 C259.726562,80.7890561 259.242192,79.7031295 258.273438,78.8125 C257.304683,77.9218705 255.304703,76.8671936 252.273438,75.6484375 C249.148422,74.3828062 246.945319,72.9375081 245.664062,71.3125 C244.382806,69.6874919 243.742188,67.7343864 243.742188,65.453125 C243.742188,62.5937357 244.757802,60.3437582 246.789062,58.703125 C248.820323,57.0624918 251.546858,56.2421875 254.96875,56.2421875 C258.250016,56.2421875 261.515609,56.9609303 264.765625,58.3984375 L262.984375,62.96875 C259.937485,61.6874936 257.218762,61.046875 254.828125,61.046875 C253.015616,61.046875 251.64063,61.4414023 250.703125,62.2304688 C249.76562,63.0195352 249.296875,64.0624935 249.296875,65.359375 C249.296875,66.2500045 249.484373,67.0117156 249.859375,67.6445312 C250.234377,68.2773469 250.851558,68.8749972 251.710938,69.4375 C252.570317,70.0000028 254.117176,70.7421829 256.351562,71.6640625 C258.8672,72.7109427 260.710932,73.6874955 261.882812,74.59375 C263.054693,75.5000045 263.91406,76.5234318 264.460938,77.6640625 C265.007815,78.8046932 265.28125,80.1484298 265.28125,81.6953125 L265.28125,81.6953125 Z M292.585938,91 L289.234375,78.90625 C288.828123,77.6249936 288.093755,74.6484609 287.03125,69.9765625 L286.820312,69.9765625 C285.914058,74.1953336 285.195315,77.1874912 284.664062,78.953125 L281.21875,91 L275.125,91 L267.859375,65.078125 L273.484375,65.078125 L276.789062,77.8515625 C277.539066,81.0078283 278.070311,83.7109262 278.382812,85.9609375 L278.523438,85.9609375 C278.679688,84.8203068 278.917967,83.5117261 279.238281,82.0351562 C279.558595,80.5585864 279.835936,79.4531287 280.070312,78.71875 L284.007812,65.078125 L290.054688,65.078125 L293.875,78.71875 C294.109376,79.4843788 294.402342,80.6562421 294.753906,82.234375 C295.105471,83.8125079 295.3125,85.0390581 295.375,85.9140625 L295.5625,85.9140625 C295.796876,83.9921779 296.343746,81.3047048 297.203125,77.8515625 L300.554688,65.078125 L306.085938,65.078125 L298.773438,91 L292.585938,91 Z M316.046875,91 L310.539062,91 L310.539062,65.078125 L316.046875,65.078125 L316.046875,91 Z M310.210938,58.2109375 C310.210938,57.2265576 310.480466,56.4687527 311.019531,55.9375 C311.558596,55.4062473 312.32812,55.140625 313.328125,55.140625 C314.29688,55.140625 315.050779,55.4062473 315.589844,55.9375 C316.128909,56.4687527 316.398438,57.2265576 316.398438,58.2109375 C316.398438,59.1484422 316.128909,59.8867161 315.589844,60.4257812 C315.050779,60.9648464 314.29688,61.234375 313.328125,61.234375 C312.32812,61.234375 311.558596,60.9648464 311.019531,60.4257812 C310.480466,59.8867161 310.210938,59.1484422 310.210938,58.2109375 L310.210938,58.2109375 Z M341.335938,83.6171875 C341.335938,86.1484502 340.414072,88.089837 338.570312,89.4414062 C336.726553,90.7929755 334.085955,91.46875 330.648438,91.46875 C327.195295,91.46875 324.421885,90.9453177 322.328125,89.8984375 L322.328125,85.140625 C325.375015,86.546882 328.210924,87.25 330.835938,87.25 C334.226579,87.25 335.921875,86.2265727 335.921875,84.1796875 C335.921875,83.5234342 335.734377,82.9765647 335.359375,82.5390625 C334.984373,82.1015603 334.367192,81.6484398 333.507812,81.1796875 C332.648433,80.7109352 331.453133,80.1796905 329.921875,79.5859375 C326.937485,78.4296817 324.917974,77.2734433 323.863281,76.1171875 C322.808588,74.9609317 322.28125,73.4609467 322.28125,71.6171875 C322.28125,69.3984264 323.175772,67.6757874 324.964844,66.4492188 C326.753915,65.2226501 329.187485,64.609375 332.265625,64.609375 C335.312515,64.609375 338.195299,65.2265563 340.914062,66.4609375 L339.132812,70.609375 C336.335924,69.4531192 333.984385,68.875 332.078125,68.875 C329.17186,68.875 327.71875,69.7031167 327.71875,71.359375 C327.71875,72.1718791 328.097652,72.8593722 328.855469,73.421875 C329.613285,73.9843778 331.265612,74.7578076 333.8125,75.7421875 C335.953136,76.5703166 337.507808,77.3281216 338.476562,78.015625 C339.445317,78.7031284 340.16406,79.4960893 340.632812,80.3945312 C341.101565,81.2929732 341.335938,82.3671812 341.335938,83.6171875 L341.335938,83.6171875 Z M364.703125,83.6171875 C364.703125,86.1484502 363.781259,88.089837 361.9375,89.4414062 C360.093741,90.7929755 357.453142,91.46875 354.015625,91.46875 C350.562483,91.46875 347.789073,90.9453177 345.695312,89.8984375 L345.695312,85.140625 C348.742203,86.546882 351.578112,87.25 354.203125,87.25 C357.593767,87.25 359.289062,86.2265727 359.289062,84.1796875 C359.289062,83.5234342 359.101564,82.9765647 358.726562,82.5390625 C358.351561,82.1015603 357.734379,81.6484398 356.875,81.1796875 C356.015621,80.7109352 354.82032,80.1796905 353.289062,79.5859375 C350.304673,78.4296817 348.285162,77.2734433 347.230469,76.1171875 C346.175776,74.9609317 345.648438,73.4609467 345.648438,71.6171875 C345.648438,69.3984264 346.54296,67.6757874 348.332031,66.4492188 C350.121103,65.2226501 352.554672,64.609375 355.632812,64.609375 C358.679703,64.609375 361.562486,65.2265563 364.28125,66.4609375 L362.5,70.609375 C359.703111,69.4531192 357.351572,68.875 355.445312,68.875 C352.539048,68.875 351.085938,69.7031167 351.085938,71.359375 C351.085938,72.1718791 351.46484,72.8593722 352.222656,73.421875 C352.980473,73.9843778 354.6328,74.7578076 357.179688,75.7421875 C359.320323,76.5703166 360.874995,77.3281216 361.84375,78.015625 C362.812505,78.7031284 363.531248,79.4960893 364,80.3945312 C364.468752,81.2929732 364.703125,82.3671812 364.703125,83.6171875 L364.703125,83.6171875 Z M268.210938,115.09375 C268.210938,118.671893 267.039074,121.414053 264.695312,123.320312 C262.351551,125.226572 259.015647,126.179688 254.6875,126.179688 L251.125,126.179688 L251.125,139 L245.523438,139 L245.523438,104.734375 L255.390625,104.734375 C259.671896,104.734375 262.878896,105.609366 265.011719,107.359375 C267.144542,109.109384 268.210938,111.687483 268.210938,115.09375 L268.210938,115.09375 Z M251.125,121.46875 L254.101562,121.46875 C256.976577,121.46875 259.085931,120.968755 260.429688,119.96875 C261.773444,118.968745 262.445312,117.406261 262.445312,115.28125 C262.445312,113.31249 261.843756,111.843755 260.640625,110.875 C259.437494,109.906245 257.562513,109.421875 255.015625,109.421875 L251.125,109.421875 L251.125,121.46875 Z M270.53125,113.078125 L276.53125,113.078125 L281.804688,127.773438 C282.601566,129.867198 283.132811,131.835928 283.398438,133.679688 L283.585938,133.679688 C283.726563,132.820308 283.984373,131.77735 284.359375,130.550781 C284.734377,129.324213 286.718732,123.500052 290.3125,113.078125 L296.265625,113.078125 L285.179688,142.445312 C283.164052,147.835964 279.804711,150.53125 275.101562,150.53125 C273.882806,150.53125 272.695318,150.398439 271.539062,150.132812 L271.539062,145.773438 C272.367192,145.960938 273.312495,146.054688 274.375,146.054688 C277.031263,146.054688 278.898432,144.51564 279.976562,141.4375 L280.9375,139 L270.53125,113.078125 Z M309.859375,135.015625 C311.203132,135.015625 312.546868,134.80469 313.890625,134.382812 L313.890625,138.53125 C313.281247,138.796876 312.496099,139.01953 311.535156,139.199219 C310.574214,139.378907 309.57813,139.46875 308.546875,139.46875 C303.328099,139.46875 300.71875,136.718777 300.71875,131.21875 L300.71875,117.25 L297.179688,117.25 L297.179688,114.8125 L300.976562,112.796875 L302.851562,107.3125 L306.25,107.3125 L306.25,113.078125 L313.632812,113.078125 L313.632812,117.25 L306.25,117.25 L306.25,131.125 C306.25,132.453132 306.582028,133.433591 307.246094,134.066406 C307.91016,134.699222 308.781245,135.015625 309.859375,135.015625 L309.859375,135.015625 Z M341.875,139 L336.34375,139 L336.34375,123.0625 C336.34375,121.06249 335.94141,119.570317 335.136719,118.585938 C334.332027,117.601558 333.054696,117.109375 331.304688,117.109375 C328.992176,117.109375 327.292974,117.800774 326.207031,119.183594 C325.121088,120.566413 324.578125,122.882796 324.578125,126.132812 L324.578125,139 L319.070312,139 L319.070312,102.53125 L324.578125,102.53125 L324.578125,111.789062 C324.578125,113.273445 324.484376,114.859367 324.296875,116.546875 L324.648438,116.546875 C325.398441,115.296869 326.4414,114.328128 327.777344,113.640625 C329.113288,112.953122 330.671866,112.609375 332.453125,112.609375 C338.734406,112.609375 341.875,115.773406 341.875,122.101562 L341.875,139 Z M372.53125,125.992188 C372.53125,130.226584 371.445323,133.531238 369.273438,135.90625 C367.101552,138.281262 364.078144,139.46875 360.203125,139.46875 C357.781238,139.46875 355.640634,138.92188 353.78125,137.828125 C351.921866,136.73437 350.492192,135.164073 349.492188,133.117188 C348.492183,131.070302 347.992188,128.695326 347.992188,125.992188 C347.992188,121.789041 349.070302,118.507824 351.226562,116.148438 C353.382823,113.789051 356.421855,112.609375 360.34375,112.609375 C364.093769,112.609375 367.062489,113.816394 369.25,116.230469 C371.437511,118.644543 372.53125,121.898417 372.53125,125.992188 L372.53125,125.992188 Z M353.664062,125.992188 C353.664062,131.976592 355.874978,134.96875 360.296875,134.96875 C364.671897,134.96875 366.859375,131.976592 366.859375,125.992188 C366.859375,120.070283 364.656272,117.109375 360.25,117.109375 C357.937488,117.109375 356.261724,117.874992 355.222656,119.40625 C354.183589,120.937508 353.664062,123.132798 353.664062,125.992188 L353.664062,125.992188 Z M401.664062,139 L396.132812,139 L396.132812,123.0625 C396.132812,121.06249 395.730473,119.570317 394.925781,118.585938 C394.12109,117.601558 392.843759,117.109375 391.09375,117.109375 C388.765613,117.109375 387.062505,117.796868 385.984375,119.171875 C384.906245,120.546882 384.367188,122.851546 384.367188,126.085938 L384.367188,139 L378.859375,139 L378.859375,113.078125 L383.171875,113.078125 L383.945312,116.476562 L384.226562,116.476562 C385.007816,115.242181 386.11718,114.289066 387.554688,113.617188 C388.992195,112.945309 390.585929,112.609375 392.335938,112.609375 C398.554719,112.609375 401.664062,115.773406 401.664062,122.101562 L401.664062,139 Z M265.28125,177.695312 C265.28125,180.742203 264.179699,183.132804 261.976562,184.867188 C259.773426,186.601571 256.734394,187.46875 252.859375,187.46875 C248.984356,187.46875 245.812512,186.867194 243.34375,185.664062 L243.34375,180.367188 C244.906258,181.101566 246.566397,181.679685 248.324219,182.101562 C250.08204,182.52344 251.718742,182.734375 253.234375,182.734375 C255.453136,182.734375 257.089838,182.312504 258.144531,181.46875 C259.199224,180.624996 259.726562,179.492195 259.726562,178.070312 C259.726562,176.789056 259.242192,175.703129 258.273438,174.8125 C257.304683,173.921871 255.304703,172.867194 252.273438,171.648438 C249.148422,170.382806 246.945319,168.937508 245.664062,167.3125 C244.382806,165.687492 243.742188,163.734386 243.742188,161.453125 C243.742188,158.593736 244.757802,156.343758 246.789062,154.703125 C248.820323,153.062492 251.546858,152.242188 254.96875,152.242188 C258.250016,152.242188 261.515609,152.96093 264.765625,154.398438 L262.984375,158.96875 C259.937485,157.687494 257.218762,157.046875 254.828125,157.046875 C253.015616,157.046875 251.64063,157.441402 250.703125,158.230469 C249.76562,159.019535 249.296875,160.062494 249.296875,161.359375 C249.296875,162.250004 249.484373,163.011716 249.859375,163.644531 C250.234377,164.277347 250.851558,164.874997 251.710938,165.4375 C252.570317,166.000003 254.117176,166.742183 256.351562,167.664062 C258.8672,168.710943 260.710932,169.687495 261.882812,170.59375 C263.054693,171.500005 263.91406,172.523432 264.460938,173.664062 C265.007815,174.804693 265.28125,176.14843 265.28125,177.695312 L265.28125,177.695312 Z M289.609375,187 L288.835938,183.601562 L288.554688,183.601562 C287.789059,184.804694 286.699226,185.749997 285.285156,186.4375 C283.871087,187.125003 282.257822,187.46875 280.445312,187.46875 C277.304672,187.46875 274.960945,186.687508 273.414062,185.125 C271.86718,183.562492 271.09375,181.195328 271.09375,178.023438 L271.09375,161.078125 L276.648438,161.078125 L276.648438,177.0625 C276.648438,179.046885 277.054683,180.535151 277.867188,181.527344 C278.679692,182.519536 279.953116,183.015625 281.6875,183.015625 C284.000012,183.015625 285.699213,182.324226 286.785156,180.941406 C287.871099,179.558587 288.414062,177.242204 288.414062,173.992188 L288.414062,161.078125 L293.945312,161.078125 L293.945312,187 L289.609375,187 Z M323.640625,187 L318.109375,187 L318.109375,171.015625 C318.109375,169.03124 317.734379,167.550786 316.984375,166.574219 C316.234371,165.597651 315.062508,165.109375 313.46875,165.109375 C311.343739,165.109375 309.785161,165.800774 308.792969,167.183594 C307.800776,168.566413 307.304688,170.867171 307.304688,174.085938 L307.304688,187 L301.796875,187 L301.796875,161.078125 L306.109375,161.078125 L306.882812,164.476562 L307.164062,164.476562 C307.882816,163.242181 308.925774,162.289066 310.292969,161.617188 C311.660163,160.945309 313.164054,160.609375 314.804688,160.609375 C318.789082,160.609375 321.429681,161.968736 322.726562,164.6875 L323.101562,164.6875 C323.867191,163.406244 324.945306,162.406254 326.335938,161.6875 C327.726569,160.968746 329.320304,160.609375 331.117188,160.609375 C334.210953,160.609375 336.464837,161.390617 337.878906,162.953125 C339.292976,164.515633 340,166.898421 340,170.101562 L340,187 L334.492188,187 L334.492188,171.015625 C334.492188,169.03124 334.113285,167.550786 333.355469,166.574219 C332.597652,165.597651 331.421883,165.109375 329.828125,165.109375 C327.687489,165.109375 326.121099,165.777337 325.128906,167.113281 C324.136714,168.449225 323.640625,170.499986 323.640625,173.265625 L323.640625,187 Z M369.53125,187 L364,187 L364,171.015625 C364,169.03124 363.625004,167.550786 362.875,166.574219 C362.124996,165.597651 360.953133,165.109375 359.359375,165.109375 C357.234364,165.109375 355.675786,165.800774 354.683594,167.183594 C353.691401,168.566413 353.195312,170.867171 353.195312,174.085938 L353.195312,187 L347.6875,187 L347.6875,161.078125 L352,161.078125 L352.773438,164.476562 L353.054688,164.476562 C353.773441,163.242181 354.816399,162.289066 356.183594,161.617188 C357.550788,160.945309 359.054679,160.609375 360.695312,160.609375 C364.679707,160.609375 367.320306,161.968736 368.617188,164.6875 L368.992188,164.6875 C369.757816,163.406244 370.835931,162.406254 372.226562,161.6875 C373.617194,160.968746 375.210929,160.609375 377.007812,160.609375 C380.101578,160.609375 382.355462,161.390617 383.769531,162.953125 C385.183601,164.515633 385.890625,166.898421 385.890625,170.101562 L385.890625,187 L380.382812,187 L380.382812,171.015625 C380.382812,169.03124 380.00391,167.550786 379.246094,166.574219 C378.488277,165.597651 377.312508,165.109375 375.71875,165.109375 C373.578114,165.109375 372.011724,165.777337 371.019531,167.113281 C370.027339,168.449225 369.53125,170.499986 369.53125,173.265625 L369.53125,187 Z M399.085938,187 L393.578125,187 L393.578125,161.078125 L399.085938,161.078125 L399.085938,187 Z M393.25,154.210938 C393.25,153.226558 393.519529,152.468753 394.058594,151.9375 C394.597659,151.406247 395.367183,151.140625 396.367188,151.140625 C397.335942,151.140625 398.089841,151.406247 398.628906,151.9375 C399.167971,152.468753 399.4375,153.226558 399.4375,154.210938 C399.4375,155.148442 399.167971,155.886716 398.628906,156.425781 C398.089841,156.964846 397.335942,157.234375 396.367188,157.234375 C395.367183,157.234375 394.597659,156.964846 394.058594,156.425781 C393.519529,155.886716 393.25,155.148442 393.25,154.210938 L393.25,154.210938 Z M416.617188,183.015625 C417.960944,183.015625 419.304681,182.80469 420.648438,182.382812 L420.648438,186.53125 C420.039059,186.796876 419.253911,187.01953 418.292969,187.199219 C417.332026,187.378907 416.335943,187.46875 415.304688,187.46875 C410.085911,187.46875 407.476562,184.718777 407.476562,179.21875 L407.476562,165.25 L403.9375,165.25 L403.9375,162.8125 L407.734375,160.796875 L409.609375,155.3125 L413.007812,155.3125 L413.007812,161.078125 L420.390625,161.078125 L420.390625,165.25 L413.007812,165.25 L413.007812,179.125 C413.007812,180.453132 413.33984,181.433591 414.003906,182.066406 C414.667972,182.699222 415.539057,183.015625 416.617188,183.015625 L416.617188,183.015625 Z" id="Swiss-Python-Summit" fill="#315C80" sketch:type="MSShapeGroup"></path>
            <g id="Logo" sketch:type="MSLayerGroup" transform="translate(20.000000, 19.000000)">
                <g id="snake" transform="translate(0.003534, 0.399994)" sketch:type="MSShapeGroup">
                    <path d="M153.037836,52.251329 L153.037836,73.7036527 C153.037836,90.3353498 138.937374,104.33374 122.85819,104.333742 L74.6045376,104.333742 C61.3870541,104.333742 50.4495608,115.646124 50.449559,128.882858 L50.449559,174.884292 C50.449559,187.976565 61.8342011,195.677294 74.6045376,199.433408 C89.8967557,203.929923 104.561192,204.742557 122.85819,199.433408 C135.020416,195.912046 147.013174,188.825289 147.013168,174.884292 L147.013168,156.47246 L98.7595162,156.47246 L98.7595162,150.335181 L147.013168,150.335181 L171.168154,150.335181 C185.208374,150.335181 190.440336,140.541827 195.323115,125.842371 C200.366863,110.70951 200.152254,96.1568127 195.323115,76.7441395 C191.853302,62.7670153 185.22623,52.251329 171.168154,52.251329 L153.037836,52.251329 L153.037836,52.251329 Z M125.898676,168.747018 C130.906656,168.747024 134.963831,172.8504 134.963831,177.924779 C134.963828,183.017211 130.906651,187.15885 125.898676,187.15885 C120.908584,187.15885 116.833521,183.017211 116.833521,177.924779 C116.833525,172.8504 120.908579,168.747018 125.898676,168.747018 L125.898676,168.747018 Z" id="snake-bottom" fill="url(#linearGradient-1)"></path>
                    <path d="M98.9510181,0.00165632008 C90.6923298,0.0400309573 82.8054674,0.744377791 75.8658404,1.97234222 C55.4225692,5.58399696 51.7108636,13.1435 51.7108618,27.0845113 L51.7108618,45.4963481 L100.020819,45.4963481 L100.020819,51.6336271 L51.7108618,51.6336271 L33.5805515,51.6336271 C19.540333,51.6336271 7.2463156,60.0726077 3.40090427,76.1264375 C-1.03472907,94.5278529 -1.23147352,106.010636 3.40090427,125.224669 C6.83494863,139.526852 15.0359117,149.717476 29.0761266,149.71748 L45.6861935,149.71748 L45.6861935,127.645797 C45.6861935,111.70031 59.4826056,97.6350701 75.8658404,97.6350665 L124.119492,97.6350665 C137.551599,97.6350665 148.274476,86.575507 148.274471,73.0859507 L148.274471,27.0845113 C148.274471,13.9922399 137.229657,4.15738938 124.119492,1.97234222 C115.820563,0.590879603 107.209706,-0.0367183172 98.9510181,0.00165632008 L98.9510181,0.00165632008 Z M72.8253536,14.8099534 C77.8154402,14.8099534 81.8905087,18.9515847 81.8905087,24.0440245 C81.8905051,29.1184141 77.8154402,33.2217902 72.8253536,33.2217902 C67.8173772,33.2217884 63.7601985,29.1184123 63.7601985,24.0440245 C63.7601967,18.9515865 67.8173772,14.8099534 72.8253536,14.8099534 L72.8253536,14.8099534 Z" id="snake-top" fill="url(#linearGradient-2)"></path>
                </g>
                <g id="mountain" transform="translate(0.000000, 32.000000)" sketch:type="MSShapeGroup">
                    <path d="M50.4530929,105.992429 L72.3158743,72.8477651 C73.0710014,72.7723703 73.8356431,72.733736 74.6080715,72.733736 L122.861723,72.733736 C138.346428,72.7337342 151.996022,59.7513052 152.98416,43.9369937 L193.72515,98.8180341 C189.213795,110.939043 183.698708,118.735175 171.171688,118.735175 L147.016702,118.735175 L98.7630501,118.735175 L98.7630501,124.872454 L147.016702,124.872454 L147.016702,143.284286 C147.016707,157.225283 135.02395,164.31204 122.861723,167.833402 C104.564726,173.142551 89.9002895,172.329917 74.6080715,167.833402 C61.8377349,164.077288 50.4530929,156.376559 50.4530929,143.284286 L50.4530929,105.992429 L50.4530929,105.992429 Z M125.90221,137.147012 C130.91019,137.147018 134.967365,141.250394 134.967365,146.324773 C134.967362,151.417205 130.910185,155.558844 125.90221,155.558844 C120.912118,155.558844 116.837055,151.417205 116.837055,146.324773 C116.837059,141.250394 120.912113,137.147012 125.90221,137.147012 Z" id="bottom" fill="url(#linearGradient-3)"></path>
                    <path d="M45.6897273,100.074893 L14.3401039,54.8953344 L0.791233283,80.1787623 C1.35420307,84.3194279 2.22199924,88.7201796 3.40443809,93.624663 C6.83848246,107.926846 15.0394455,118.11747 29.0796605,118.117473 L45.6897273,118.117473 L45.6897273,100.074893 Z M76.8096496,66.0350604 L120.367493,0 L148.278005,37.5974644 L148.278005,41.4859446 C148.27801,54.9755009 137.555133,66.0350604 124.123026,66.0350604 L76.8096496,66.0350604 Z" id="top" fill="url(#linearGradient-4)"></path>
                </g>
                <g id="rays" transform="translate(1.000000, 42.000000)" stroke="#FFFCEA" sketch:type="MSShapeGroup">
                    <path d="M81.7015924,62.733736 L49.4530929,121.249579 L49.4530929,133.284286 C49.4530929,146.376559 60.8377349,154.077288 73.6080715,157.833402 C73.6555114,157.847351 73.7029452,157.861265 73.7503732,157.875143 L99.9669277,62.733736 L81.7015924,62.733736 L81.7015924,62.733736 Z" id="bottom" fill="#FFFCEA"></path>
                    <path d="M85.597709,56.0350604 L116.232263,0.447769165 L100.914986,56.0350604 L85.597709,56.0350604 Z" id="top-right" fill="#FFFDEB"></path>
                    <path d="M0.829851905,76.4316563 L10.8808667,55.7124674 L3.28191139,86.8490659 C2.96089462,85.8004324 2.66856616,84.7247094 2.40443809,83.624663 C1.7969781,81.1050592 1.27255969,78.718402 0.829851905,76.4316563 Z" id="left" fill="#FFFCEA"></path>
                </g>
            </g>
        </g>
    </g>
</svg>