<?xml version="1.0" encoding="UTF-8" standalone="no"?>
<svg width="414px" height="208px" viewBox="0 0 414 208" version="1.1" xmlns="http://www.w3.org/2000/svg" xmlns:xlink="http://www.w3.org/1999/xlink" xmlns:sketch="http://www.bohemiancoding.com/sketch/ns">
    <!-- Generator: Sketch 3.4.3 (16044) - http://www.bohemiancoding.com/sketch -->
    <title>Untitled</title>
    <desc>Created with Sketch.</desc>
    <defs></defs>
    <g id="Page-1" stroke="none" stroke-width="1" fill="none" fill-rule="evenodd" sketch:type="MSPage">
        <path d="M257.28125,55.6953125 C257.28125,58.7422027 256.179699,61.1328038 253.976562,62.8671875 C251.773426,64.6015712 248.734394,65.46875 244.859375,65.46875 C240.984356,65.46875 237.812512,64.8671935 235.34375,63.6640625 L235.34375,58.3671875 C236.906258,59.1015662 238.566397,59.6796854 240.324219,60.1015625 C242.08204,60.5234396 243.718742,60.734375 245.234375,60.734375 C247.453136,60.734375 249.089838,60.3125042 250.144531,59.46875 C251.199224,58.6249958 251.726562,57.4921946 251.726562,56.0703125 C251.726562,54.7890561 251.242192,53.7031295 250.273438,52.8125 C249.304683,51.9218705 247.304703,50.8671936 244.273438,49.6484375 C241.148422,48.3828062 238.945319,46.9375081 237.664062,45.3125 C236.382806,43.6874919 235.742188,41.7343864 235.742188,39.453125 C235.742188,36.5937357 236.757802,34.3437582 238.789062,32.703125 C240.820323,31.0624918 243.546858,30.2421875 246.96875,30.2421875 C250.250016,30.2421875 253.515609,30.9609303 256.765625,32.3984375 L254.984375,36.96875 C251.937485,35.6874936 249.218762,35.046875 246.828125,35.046875 C245.015616,35.046875 243.64063,35.4414023 242.703125,36.2304688 C241.76562,37.0195352 241.296875,38.0624935 241.296875,39.359375 C241.296875,40.2500045 241.484373,41.0117156 241.859375,41.6445312 C242.234377,42.2773469 242.851558,42.8749972 243.710938,43.4375 C244.570317,44.0000028 246.117176,44.7421829 248.351562,45.6640625 C250.8672,46.7109427 252.710932,47.6874955 253.882812,48.59375 C255.054693,49.5000045 255.91406,50.5234318 256.460938,51.6640625 C257.007815,52.8046932 257.28125,54.1484298 257.28125,55.6953125 L257.28125,55.6953125 Z M284.585938,65 L281.234375,52.90625 C280.828123,51.6249936 280.093755,48.6484609 279.03125,43.9765625 L278.820312,43.9765625 C277.914058,48.1953336 277.195315,51.1874912 276.664062,52.953125 L273.21875,65 L267.125,65 L259.859375,39.078125 L265.484375,39.078125 L268.789062,51.8515625 C269.539066,55.0078283 270.070311,57.7109263 270.382812,59.9609375 L270.523438,59.9609375 C270.679688,58.8203068 270.917967,57.5117261 271.238281,56.0351562 C271.558595,54.5585864 271.835936,53.4531287 272.070312,52.71875 L276.007812,39.078125 L282.054688,39.078125 L285.875,52.71875 C286.109376,53.4843788 286.402342,54.6562421 286.753906,56.234375 C287.105471,57.8125079 287.3125,59.0390581 287.375,59.9140625 L287.5625,59.9140625 C287.796876,57.9921779 288.343746,55.3047048 289.203125,51.8515625 L292.554688,39.078125 L298.085938,39.078125 L290.773438,65 L284.585938,65 Z M308.046875,65 L302.539062,65 L302.539062,39.078125 L308.046875,39.078125 L308.046875,65 Z M302.210938,32.2109375 C302.210938,31.2265576 302.480466,30.4687527 303.019531,29.9375 C303.558596,29.4062473 304.32812,29.140625 305.328125,29.140625 C306.29688,29.140625 307.050779,29.4062473 307.589844,29.9375 C308.128909,30.4687527 308.398438,31.2265576 308.398438,32.2109375 C308.398438,33.1484422 308.128909,33.8867161 307.589844,34.4257812 C307.050779,34.9648464 306.29688,35.234375 305.328125,35.234375 C304.32812,35.234375 303.558596,34.9648464 303.019531,34.4257812 C302.480466,33.8867161 302.210938,33.1484422 302.210938,32.2109375 L302.210938,32.2109375 Z M333.335938,57.6171875 C333.335938,60.1484502 332.414072,62.089837 330.570312,63.4414062 C328.726553,64.7929755 326.085955,65.46875 322.648438,65.46875 C319.195295,65.46875 316.421885,64.9453177 314.328125,63.8984375 L314.328125,59.140625 C317.375015,60.546882 320.210924,61.25 322.835938,61.25 C326.226579,61.25 327.921875,60.2265727 327.921875,58.1796875 C327.921875,57.5234342 327.734377,56.9765647 327.359375,56.5390625 C326.984373,56.1015603 326.367192,55.6484398 325.507812,55.1796875 C324.648433,54.7109352 323.453133,54.1796905 321.921875,53.5859375 C318.937485,52.4296817 316.917974,51.2734433 315.863281,50.1171875 C314.808588,48.9609317 314.28125,47.4609467 314.28125,45.6171875 C314.28125,43.3984264 315.175772,41.6757874 316.964844,40.4492188 C318.753915,39.2226501 321.187485,38.609375 324.265625,38.609375 C327.312515,38.609375 330.195299,39.2265563 332.914062,40.4609375 L331.132812,44.609375 C328.335924,43.4531192 325.984385,42.875 324.078125,42.875 C321.17186,42.875 319.71875,43.7031167 319.71875,45.359375 C319.71875,46.1718791 320.097652,46.8593722 320.855469,47.421875 C321.613285,47.9843778 323.265612,48.7578076 325.8125,49.7421875 C327.953136,50.5703166 329.507808,51.3281216 330.476562,52.015625 C331.445317,52.7031284 332.16406,53.4960893 332.632812,54.3945312 C333.101565,55.2929732 333.335938,56.3671813 333.335938,57.6171875 L333.335938,57.6171875 Z M356.703125,57.6171875 C356.703125,60.1484502 355.781259,62.089837 353.9375,63.4414062 C352.093741,64.7929755 349.453142,65.46875 346.015625,65.46875 C342.562483,65.46875 339.789073,64.9453177 337.695312,63.8984375 L337.695312,59.140625 C340.742203,60.546882 343.578112,61.25 346.203125,61.25 C349.593767,61.25 351.289062,60.2265727 351.289062,58.1796875 C351.289062,57.5234342 351.101564,56.9765647 350.726562,56.5390625 C350.351561,56.1015603 349.734379,55.6484398 348.875,55.1796875 C348.015621,54.7109352 346.82032,54.1796905 345.289062,53.5859375 C342.304673,52.4296817 340.285162,51.2734433 339.230469,50.1171875 C338.175776,48.9609317 337.648438,47.4609467 337.648438,45.6171875 C337.648438,43.3984264 338.54296,41.6757874 340.332031,40.4492188 C342.121103,39.2226501 344.554672,38.609375 347.632812,38.609375 C350.679703,38.609375 353.562486,39.2265563 356.28125,40.4609375 L354.5,44.609375 C351.703111,43.4531192 349.351572,42.875 347.445312,42.875 C344.539048,42.875 343.085938,43.7031167 343.085938,45.359375 C343.085938,46.1718791 343.46484,46.8593722 344.222656,47.421875 C344.980473,47.9843778 346.6328,48.7578076 349.179688,49.7421875 C351.320323,50.5703166 352.874995,51.3281216 353.84375,52.015625 C354.812505,52.7031284 355.531248,53.4960893 356,54.3945312 C356.468752,55.2929732 356.703125,56.3671813 356.703125,57.6171875 L356.703125,57.6171875 Z M260.210938,93.09375 C260.210938,96.6718929 259.039074,99.414053 256.695312,101.320312 C254.351551,103.226572 251.015647,104.179688 246.6875,104.179688 L243.125,104.179688 L243.125,117 L237.523438,117 L237.523438,82.734375 L247.390625,82.734375 C251.671896,82.734375 254.878896,83.6093662 257.011719,85.359375 C259.144542,87.1093838 260.210938,89.687483 260.210938,93.09375 L260.210938,93.09375 Z M243.125,99.46875 L246.101562,99.46875 C248.976577,99.46875 251.085931,98.968755 252.429688,97.96875 C253.773444,96.968745 254.445312,95.4062606 254.445312,93.28125 C254.445312,91.3124902 253.843756,89.8437548 252.640625,88.875 C251.437494,87.9062452 249.562513,87.421875 247.015625,87.421875 L243.125,87.421875 L243.125,99.46875 Z M262.53125,91.078125 L268.53125,91.078125 L273.804688,105.773438 C274.601566,107.867198 275.132811,109.835928 275.398438,111.679688 L275.585938,111.679688 C275.726563,110.820308 275.984373,109.77735 276.359375,108.550781 C276.734377,107.324213 278.718732,101.500052 282.3125,91.078125 L288.265625,91.078125 L277.179688,120.445312 C275.164052,125.835964 271.804711,128.53125 267.101562,128.53125 C265.882806,128.53125 264.695318,128.398439 263.539062,128.132812 L263.539062,123.773438 C264.367192,123.960938 265.312495,124.054688 266.375,124.054688 C269.031263,124.054688 270.898432,122.51564 271.976562,119.4375 L272.9375,117 L262.53125,91.078125 Z M301.859375,113.015625 C303.203132,113.015625 304.546868,112.80469 305.890625,112.382812 L305.890625,116.53125 C305.281247,116.796876 304.496099,117.01953 303.535156,117.199219 C302.574214,117.378907 301.57813,117.46875 300.546875,117.46875 C295.328099,117.46875 292.71875,114.718777 292.71875,109.21875 L292.71875,95.25 L289.179688,95.25 L289.179688,92.8125 L292.976562,90.796875 L294.851562,85.3125 L298.25,85.3125 L298.25,91.078125 L305.632812,91.078125 L305.632812,95.25 L298.25,95.25 L298.25,109.125 C298.25,110.453132 298.582028,111.433591 299.246094,112.066406 C299.91016,112.699222 300.781245,113.015625 301.859375,113.015625 L301.859375,113.015625 Z M333.875,117 L328.34375,117 L328.34375,101.0625 C328.34375,99.06249 327.94141,97.5703174 327.136719,96.5859375 C326.332027,95.6015576 325.054696,95.109375 323.304688,95.109375 C320.992176,95.109375 319.292974,95.8007743 318.207031,97.1835938 C317.121088,98.5664132 316.578125,100.882796 316.578125,104.132812 L316.578125,117 L311.070312,117 L311.070312,80.53125 L316.578125,80.53125 L316.578125,89.7890625 C316.578125,91.2734449 316.484376,92.8593666 316.296875,94.546875 L316.648438,94.546875 C317.398441,93.2968688 318.4414,92.3281284 319.777344,91.640625 C321.113288,90.9531216 322.671866,90.609375 324.453125,90.609375 C330.734406,90.609375 333.875,93.7734059 333.875,100.101562 L333.875,117 Z M364.53125,103.992188 C364.53125,108.226584 363.445323,111.531238 361.273438,113.90625 C359.101552,116.281262 356.078144,117.46875 352.203125,117.46875 C349.781238,117.46875 347.640634,116.92188 345.78125,115.828125 C343.921866,114.73437 342.492192,113.164073 341.492188,111.117188 C340.492183,109.070302 339.992188,106.695326 339.992188,103.992188 C339.992188,99.7890415 341.070302,96.5078243 343.226562,94.1484375 C345.382823,91.7890507 348.421855,90.609375 352.34375,90.609375 C356.093769,90.609375 359.062489,91.8163942 361.25,94.2304688 C363.437511,96.6445433 364.53125,99.898417 364.53125,103.992188 L364.53125,103.992188 Z M345.664062,103.992188 C345.664062,109.976592 347.874978,112.96875 352.296875,112.96875 C356.671897,112.96875 358.859375,109.976592 358.859375,103.992188 C358.859375,98.0702829 356.656272,95.109375 352.25,95.109375 C349.937488,95.109375 348.261724,95.8749923 347.222656,97.40625 C346.183589,98.9375077 345.664062,101.132798 345.664062,103.992188 L345.664062,103.992188 Z M393.664062,117 L388.132812,117 L388.132812,101.0625 C388.132812,99.06249 387.730473,97.5703174 386.925781,96.5859375 C386.12109,95.6015576 384.843759,95.109375 383.09375,95.109375 C380.765613,95.109375 379.062505,95.7968681 377.984375,97.171875 C376.906245,98.5468819 376.367188,100.851546 376.367188,104.085938 L376.367188,117 L370.859375,117 L370.859375,91.078125 L375.171875,91.078125 L375.945312,94.4765625 L376.226562,94.4765625 C377.007816,93.2421813 378.11718,92.2890659 379.554688,91.6171875 C380.992195,90.9453091 382.585929,90.609375 384.335938,90.609375 C390.554719,90.609375 393.664062,93.7734059 393.664062,100.101562 L393.664062,117 Z M257.28125,159.695312 C257.28125,162.742203 256.179699,165.132804 253.976562,166.867188 C251.773426,168.601571 248.734394,169.46875 244.859375,169.46875 C240.984356,169.46875 237.812512,168.867194 235.34375,167.664062 L235.34375,162.367188 C236.906258,163.101566 238.566397,163.679685 240.324219,164.101562 C242.08204,164.52344 243.718742,164.734375 245.234375,164.734375 C247.453136,164.734375 249.089838,164.312504 250.144531,163.46875 C251.199224,162.624996 251.726562,161.492195 251.726562,160.070312 C251.726562,158.789056 251.242192,157.703129 250.273438,156.8125 C249.304683,155.921871 247.304703,154.867194 244.273438,153.648438 C241.148422,152.382806 238.945319,150.937508 237.664062,149.3125 C236.382806,147.687492 235.742188,145.734386 235.742188,143.453125 C235.742188,140.593736 236.757802,138.343758 238.789062,136.703125 C240.820323,135.062492 243.546858,134.242188 246.96875,134.242188 C250.250016,134.242188 253.515609,134.96093 256.765625,136.398438 L254.984375,140.96875 C251.937485,139.687494 249.218762,139.046875 246.828125,139.046875 C245.015616,139.046875 243.64063,139.441402 242.703125,140.230469 C241.76562,141.019535 241.296875,142.062494 241.296875,143.359375 C241.296875,144.250004 241.484373,145.011716 241.859375,145.644531 C242.234377,146.277347 242.851558,146.874997 243.710938,147.4375 C244.570317,148.000003 246.117176,148.742183 248.351562,149.664062 C250.8672,150.710943 252.710932,151.687495 253.882812,152.59375 C255.054693,153.500005 255.91406,154.523432 256.460938,155.664062 C257.007815,156.804693 257.28125,158.14843 257.28125,159.695312 L257.28125,159.695312 Z M281.609375,169 L280.835938,165.601562 L280.554688,165.601562 C279.789059,166.804694 278.699226,167.749997 277.285156,168.4375 C275.871087,169.125003 274.257822,169.46875 272.445312,169.46875 C269.304672,169.46875 266.960945,168.687508 265.414062,167.125 C263.86718,165.562492 263.09375,163.195328 263.09375,160.023438 L263.09375,143.078125 L268.648438,143.078125 L268.648438,159.0625 C268.648438,161.046885 269.054683,162.535151 269.867188,163.527344 C270.679692,164.519536 271.953116,165.015625 273.6875,165.015625 C276.000012,165.015625 277.699213,164.324226 278.785156,162.941406 C279.871099,161.558587 280.414062,159.242204 280.414062,155.992188 L280.414062,143.078125 L285.945312,143.078125 L285.945312,169 L281.609375,169 Z M315.640625,169 L310.109375,169 L310.109375,153.015625 C310.109375,151.03124 309.734379,149.550786 308.984375,148.574219 C308.234371,147.597651 307.062508,147.109375 305.46875,147.109375 C303.343739,147.109375 301.785161,147.800774 300.792969,149.183594 C299.800776,150.566413 299.304688,152.867171 299.304688,156.085938 L299.304688,169 L293.796875,169 L293.796875,143.078125 L298.109375,143.078125 L298.882812,146.476562 L299.164062,146.476562 C299.882816,145.242181 300.925774,144.289066 302.292969,143.617188 C303.660163,142.945309 305.164054,142.609375 306.804688,142.609375 C310.789082,142.609375 313.429681,143.968736 314.726562,146.6875 L315.101562,146.6875 C315.867191,145.406244 316.945306,144.406254 318.335938,143.6875 C319.726569,142.968746 321.320304,142.609375 323.117188,142.609375 C326.210953,142.609375 328.464837,143.390617 329.878906,144.953125 C331.292976,146.515633 332,148.898421 332,152.101562 L332,169 L326.492188,169 L326.492188,153.015625 C326.492188,151.03124 326.113285,149.550786 325.355469,148.574219 C324.597652,147.597651 323.421883,147.109375 321.828125,147.109375 C319.687489,147.109375 318.121099,147.777337 317.128906,149.113281 C316.136714,150.449225 315.640625,152.499986 315.640625,155.265625 L315.640625,169 Z M361.53125,169 L356,169 L356,153.015625 C356,151.03124 355.625004,149.550786 354.875,148.574219 C354.124996,147.597651 352.953133,147.109375 351.359375,147.109375 C349.234364,147.109375 347.675786,147.800774 346.683594,149.183594 C345.691401,150.566413 345.195312,152.867171 345.195312,156.085938 L345.195312,169 L339.6875,169 L339.6875,143.078125 L344,143.078125 L344.773438,146.476562 L345.054688,146.476562 C345.773441,145.242181 346.816399,144.289066 348.183594,143.617188 C349.550788,142.945309 351.054679,142.609375 352.695312,142.609375 C356.679707,142.609375 359.320306,143.968736 360.617188,146.6875 L360.992188,146.6875 C361.757816,145.406244 362.835931,144.406254 364.226562,143.6875 C365.617194,142.968746 367.210929,142.609375 369.007812,142.609375 C372.101578,142.609375 374.355462,143.390617 375.769531,144.953125 C377.183601,146.515633 377.890625,148.898421 377.890625,152.101562 L377.890625,169 L372.382812,169 L372.382812,153.015625 C372.382812,151.03124 372.00391,149.550786 371.246094,148.574219 C370.488277,147.597651 369.312508,147.109375 367.71875,147.109375 C365.578114,147.109375 364.011724,147.777337 363.019531,149.113281 C362.027339,150.449225 361.53125,152.499986 361.53125,155.265625 L361.53125,169 Z M391.085938,169 L385.578125,169 L385.578125,143.078125 L391.085938,143.078125 L391.085938,169 Z M385.25,136.210938 C385.25,135.226558 385.519529,134.468753 386.058594,133.9375 C386.597659,133.406247 387.367183,133.140625 388.367188,133.140625 C389.335942,133.140625 390.089841,133.406247 390.628906,133.9375 C391.167971,134.468753 391.4375,135.226558 391.4375,136.210938 C391.4375,137.148442 391.167971,137.886716 390.628906,138.425781 C390.089841,138.964846 389.335942,139.234375 388.367188,139.234375 C387.367183,139.234375 386.597659,138.964846 386.058594,138.425781 C385.519529,137.886716 385.25,137.148442 385.25,136.210938 L385.25,136.210938 Z M408.617188,165.015625 C409.960944,165.015625 411.304681,164.80469 412.648438,164.382812 L412.648438,168.53125 C412.039059,168.796876 411.253911,169.01953 410.292969,169.199219 C409.332026,169.378907 408.335943,169.46875 407.304688,169.46875 C402.085911,169.46875 399.476562,166.718777 399.476562,161.21875 L399.476562,147.25 L395.9375,147.25 L395.9375,144.8125 L399.734375,142.796875 L401.609375,137.3125 L405.007812,137.3125 L405.007812,143.078125 L412.390625,143.078125 L412.390625,147.25 L405.007812,147.25 L405.007812,161.125 C405.007812,162.453132 405.33984,163.433591 406.003906,164.066406 C406.667972,164.699222 407.539057,165.015625 408.617188,165.015625 L408.617188,165.015625 Z" id="Swiss-Python-Summit" fill="#000000" sketch:type="MSShapeGroup"></path>
        <g id="Logo" sketch:type="MSLayerGroup" transform="translate(2.000000, 2.000000)">
            <g id="snake" transform="translate(0.003534, 0.399994)" stroke="#000000" stroke-width="3" fill="#FFFFFF" sketch:type="MSShapeGroup">
                <path d="M153.037836,52.251329 L153.037836,73.7036527 C153.037836,90.3353498 138.937374,104.33374 122.85819,104.333742 L74.6045376,104.333742 C61.3870541,104.333742 50.4495608,115.646124 50.449559,128.882858 L50.449559,174.884292 C50.449559,187.976565 61.8342011,195.677294 74.6045376,199.433408 C89.8967557,203.929923 104.561192,204.742557 122.85819,199.433408 C135.020416,195.912046 147.013174,188.825289 147.013168,174.884292 L147.013168,156.47246 L98.7595162,156.47246 L98.7595162,150.335181 L147.013168,150.335181 L171.168154,150.335181 C185.208374,150.335181 190.440336,140.541827 195.323115,125.842371 C200.366863,110.70951 200.152254,96.1568127 195.323115,76.7441395 C191.853302,62.7670153 185.22623,52.251329 171.168154,52.251329 L153.037836,52.251329 L153.037836,52.251329 Z M125.898676,168.747018 C130.906656,168.747024 134.963831,172.8504 134.963831,177.924779 C134.963828,183.017211 130.906651,187.15885 125.898676,187.15885 C120.908584,187.15885 116.833521,183.017211 116.833521,177.924779 C116.833525,172.8504 120.908579,168.747018 125.898676,168.747018 L125.898676,168.747018 Z" id="snake-bottom"></path>
                <path d="M98.9510181,0.00165632008 C90.6923298,0.0400309573 82.8054674,0.744377791 75.8658404,1.97234222 C55.4225692,5.58399696 51.7108636,13.1435 51.7108618,27.0845113 L51.7108618,45.4963481 L100.020819,45.4963481 L100.020819,51.6336271 L51.7108618,51.6336271 L33.5805515,51.6336271 C19.540333,51.6336271 7.2463156,60.0726077 3.40090427,76.1264375 C-1.03472907,94.5278529 -1.23147352,106.010636 3.40090427,125.224669 C6.83494863,139.526852 15.0359117,149.717476 29.0761266,149.71748 L45.6861935,149.71748 L45.6861935,127.645797 C45.6861935,111.70031 59.4826056,97.6350701 75.8658404,97.6350665 L124.119492,97.6350665 C137.551599,97.6350665 148.274476,86.575507 148.274471,73.0859507 L148.274471,27.0845113 C148.274471,13.9922399 137.229657,4.15738938 124.119492,1.97234222 C115.820563,0.590879603 107.209706,-0.0367183172 98.9510181,0.00165632008 L98.9510181,0.00165632008 Z M72.8253536,14.8099534 C77.8154402,14.8099534 81.8905087,18.9515847 81.8905087,24.0440245 C81.8905051,29.1184141 77.8154402,33.2217902 72.8253536,33.2217902 C67.8173772,33.2217884 63.7601985,29.1184123 63.7601985,24.0440245 C63.7601967,18.9515865 67.8173772,14.8099534 72.8253536,14.8099534 L72.8253536,14.8099534 Z" id="snake-top"></path>
            </g>
            <g id="mountain" transform="translate(0.000000, 32.000000)" fill="#000000" sketch:type="MSShapeGroup">
                <path d="M50.4530929,105.992429 L72.3158743,72.8477651 C73.0710014,72.7723703 73.8356431,72.733736 74.6080715,72.733736 L122.861723,72.733736 C138.346428,72.7337342 151.996022,59.7513052 152.98416,43.9369937 L193.72515,98.8180341 C189.213795,110.939043 183.698708,118.735175 171.171688,118.735175 L147.016702,118.735175 L98.7630501,118.735175 L98.7630501,124.872454 L147.016702,124.872454 L147.016702,143.284286 C147.016707,157.225283 135.02395,164.31204 122.861723,167.833402 C104.564726,173.142551 89.9002895,172.329917 74.6080715,167.833402 C61.8377349,164.077288 50.4530929,156.376559 50.4530929,143.284286 L50.4530929,105.992429 Z M125.90221,137.147012 C130.91019,137.147018 134.967365,141.250394 134.967365,146.324773 C134.967362,151.417205 130.910185,155.558844 125.90221,155.558844 C120.912118,155.558844 116.837055,151.417205 116.837055,146.324773 C116.837059,141.250394 120.912113,137.147012 125.90221,137.147012 Z" id="bottom"></path>
                <path d="M45.6897273,100.074893 L14.3401039,54.8953344 L0.791233283,80.1787623 C1.35420307,84.3194279 2.22199924,88.7201796 3.40443809,93.624663 C6.83848246,107.926846 15.0394455,118.11747 29.0796605,118.117473 L45.6897273,118.117473 L45.6897273,100.074893 Z M76.8096496,66.0350604 L120.367493,0 L148.278005,37.5974644 L148.278005,41.4859446 C148.27801,54.9755009 137.555133,66.0350604 124.123026,66.0350604 L76.8096496,66.0350604 Z" id="top"></path>
            </g>
            <g id="rays" transform="translate(3.000000, 40.000000)" stroke="#FFFCEA" fill="#FFFFFF" sketch:type="MSShapeGroup">
                <path d="M81.7015924,62.733736 L49.4530929,121.249579 L49.4530929,133.284286 C49.4530929,146.376559 60.8377349,154.077288 73.6080715,157.833402 C73.6555114,157.847351 73.7029452,157.861265 73.7503732,157.875143 L99.9669277,62.733736 L81.7015924,62.733736 Z" id="bottom"></path>
                <path d="M85.597709,56.0350604 L116.232263,0.447769165 L100.914986,56.0350604 L85.597709,56.0350604 Z" id="top-right"></path>
                <path d="M0.829851905,77.4316563 L10.8808667,56.7124674 L3.28191139,87.8490659 C2.96089462,86.8004324 2.66856616,85.7247094 2.40443809,84.624663 C1.7969781,82.1050592 1.27255969,79.718402 0.829851905,77.4316563 Z" id="left"></path>
            </g>
        </g>
    </g>
</svg>