<svg xmlns="http://www.w3.org/2000/svg" width="210" height="84" viewBox="0 0 210 84">
  <g fill="none" fill-rule="evenodd" transform="translate(0 .832)">
    <polygon fill="#FFFFFF" points=".068 0 209.818 0 209.818 82.105 .068 82.105"/>
    <polygon fill="#3B79A8" points="14.341 11.627 28.572 11.627 28.572 25.87 14.341 25.87"/>
    <polygon fill="#3B79A8" points="14.341 37.397 28.572 37.397 28.572 51.637 14.341 51.637"/>
    <polygon fill="#3B79A8" points="38.925 37.397 53.156 37.397 53.156 51.637 38.925 51.637"/>
    <polyline fill="#C1C1C0" points="54.255 24.198 40.29 26.95 37.538 12.983 51.499 10.226 54.255 24.198"/>
    <polyline fill="#504D4A" points="67.388 65.155 70.353 65.155 70.353 65.859 68.188 65.859 68.188 67.491 70.257 67.491 70.257 68.193 68.188 68.193 68.188 70.736 67.388 70.736 67.388 65.155"/>
    <polyline fill="#504D4A" points="71.792 65.155 72.591 65.155 72.591 67.491 75.259 67.491 75.259 65.155 76.059 65.155 76.059 70.736 75.259 70.736 75.259 68.193 72.591 68.193 72.591 70.736 71.792 70.736 71.792 65.155"/>
    <path fill="#504D4A" d="M80.239599,65.0593706 C81.9329709,65.0593706 82.923907,66.2942489 82.923907,67.9456989 C82.923907,69.6416594 81.9409531,70.8343099 80.239599,70.8343099 C78.5371046,70.8343099 77.5552911,69.6416594 77.5552911,67.9456989 C77.5552911,66.2942489 78.5450869,65.0593706 80.239599,65.0593706 M80.239599,70.1278499 C81.5258775,70.1278499 82.0766509,69.058459 82.0766509,67.9456989 C82.0766509,66.8112543 81.4700019,65.7567002 80.239599,65.763548 C79.0091962,65.7567002 78.4025471,66.8112543 78.4025471,67.9456989 C78.4025471,69.058459 78.9533206,70.1278499 80.239599,70.1278499"/>
    <polyline fill="#504D4A" points="86.874 65.155 89.839 65.155 89.839 65.859 87.674 65.859 87.674 67.491 89.743 67.491 89.743 68.193 87.674 68.193 87.674 70.736 86.874 70.736 86.874 65.155"/>
    <path fill="#504D4A" d="M91.3576971 66.9470681C91.7328617 66.7222335 92.1798662 66.5635939 92.6998511 66.5635939 93.8663962 66.5635939 94.3373474 67.1410878 94.3373474 68.2515653L94.3373474 69.9383954C94.3373474 70.4006188 94.3544522 70.6186056 94.3692763 70.7361587L93.6679809 70.7361587 93.6679809 70.2111642 93.6508761 70.2111642C93.4752672 70.4554008 93.076156 70.8343099 92.3896847 70.8343099 91.5093594 70.8343099 90.8947281 70.4508356 90.8947281 69.5617689 90.8947281 68.539171 92.0133799 68.2173265 92.7887959 68.2173265 93.0829979 68.2173265 93.2928164 68.2173265 93.585878 68.2355872 93.585878 67.5314098 93.3304469 67.1719027 92.5801178 67.1719027 92.1570599 67.1719027 91.7020731 67.3305424 91.3976083 67.5861918L91.3576971 66.9470681 91.3576971 66.9470681zM93.585878 68.7948204C93.4273739 68.7948204 93.2677294 68.7788423 93.1069446 68.7788423 92.6998511 68.7788423 91.6940909 68.8416134 91.6940909 69.5617689 91.6940909 69.9943187 92.1080262 70.226001 92.4524022 70.226001 93.1958894 70.226001 93.585878 69.7603538 93.585878 69.1543275L93.585878 68.7948204 93.585878 68.7948204zM98.5177523 67.348803C98.2315326 67.227826 97.9430322 67.1719027 97.7047058 67.1719027 96.8642916 67.1719027 96.3933403 67.9240144 96.3933403 68.6966693 96.3933403 69.4259551 96.7856097 70.2248598 97.7514588 70.2248598 98.00689 70.2248598 98.3273193 70.143828 98.5588038 69.9943187L98.613539 70.6653986C98.3022323 70.8103427 97.9430322 70.8343099 97.6716365 70.8343099 96.442374 70.8343099 95.5939776 69.8676353 95.5939776 68.6966693 95.5939776 67.4595084 96.4252692 66.5624526 97.6716365 66.5624526 97.9749611 66.5624526 98.3660901 66.6354953 98.5827504 66.7222335L98.5177523 67.348803M99.7983292 64.74095L100.548658 64.74095 100.548658 67.2438041 100.565763 67.2438041C100.837159 66.810113 101.30925 66.5635939 101.875988 66.5635939 102.929642 66.5635939 103.401733 67.2186957 103.401733 68.3154777L103.401733 70.7361587 102.650264 70.7361587 102.650264 68.6281918C102.650264 67.6740713 102.441586 67.2107067 101.787043 67.1719027 100.931805 67.1719027 100.548658 67.8589607 100.548658 68.8507438L100.548658 70.7361587 99.7983292 70.7361587 99.7983292 64.74095M105.001599 64.74095L105.753068 64.74095 105.753068 67.2438041 105.766752 67.2438041C106.040429 66.810113 106.51252 66.5635939 107.078118 66.5635939 108.131771 66.5635939 108.603863 67.2186957 108.603863 68.3154777L108.603863 70.7361587 107.853534 70.7361587 107.853534 68.6281918C107.853534 67.6740713 107.643715 67.2107067 106.989173 67.1719027 106.136215 67.1719027 105.753068 67.8589607 105.753068 68.8507438L105.753068 70.7361587 105.001599 70.7361587 105.001599 64.74095M112.009992 66.5635939C113.248377 66.5635939 114.080809 67.4595084 114.080809 68.6966693 114.080809 69.8676353 113.232413 70.8343099 112.009992 70.8343099 110.779589 70.8343099 109.931193 69.8676353 109.931193 68.6966693 109.931193 67.4595084 110.762484 66.5635939 112.009992 66.5635939M112.009992 70.226001C112.889177 70.226001 113.281446 69.4259551 113.281446 68.6966693 113.281446 67.9240144 112.809355 67.1719027 112.009992 67.1719027 111.203787 67.1719027 110.729415 67.9240144 110.729415 68.6966693 110.729415 69.4259551 111.123965 70.226001 112.009992 70.226001M117.99666 67.348803C117.7093 67.227826 117.42194 67.1719027 117.181333 67.1719027 116.342059 67.1719027 115.871108 67.9240144 115.871108 68.6966693 115.871108 69.4259551 116.262237 70.2248598 117.228086 70.2248598 117.485798 70.2248598 117.805087 70.143828 118.034291 69.9943187L118.090166 70.6653986C117.778859 70.8103427 117.42194 70.8343099 117.147123 70.8343099 115.920142 70.8343099 115.072885 69.8676353 115.072885 68.6966693 115.072885 67.4595084 115.903037 66.5624526 117.147123 66.5624526 117.452729 66.5624526 117.844998 66.6354953 118.059378 66.7222335L117.99666 67.348803M119.277237 64.74095L120.027566 64.74095 120.027566 67.2438041 120.04239 67.2438041C120.314926 66.810113 120.784737 66.5635939 121.354896 66.5635939 122.40855 66.5635939 122.880641 67.2186957 122.880641 68.3154777L122.880641 70.7361587 122.125751 70.7361587 122.125751 68.6281918C122.125751 67.6740713 121.922774 67.2107067 121.265951 67.1719027 120.410713 67.1719027 120.027566 67.8589607 120.027566 68.8507438L120.027566 70.7361587 119.277237 70.7361587 119.277237 64.74095M124.176042 69.9383954C124.472525 70.1278499 124.895583 70.226001 125.109962 70.226001 125.455479 70.226001 125.878536 70.0810569 125.878536 69.6416594 125.878536 68.8975368 124.112184 68.9625904 124.112184 67.8190155 124.112184 66.9721766 124.74278 66.5635939 125.551265 66.5635939 125.902483 66.5635939 126.189843 66.634354 126.482905 66.7222335L126.421328 67.3796179C126.254841 67.274619 125.806696 67.1719027 125.631088 67.1719027 125.24566 67.1719027 124.911547 67.3305424 124.911547 67.6672236 124.911547 68.4992257 126.677899 68.2606956 126.677899 69.5617689 126.677899 70.4337163 125.981165 70.8343099 125.254783 70.8343099 124.871636 70.8343099 124.479367 70.7920821 124.136131 70.6094753L124.176042 69.9383954M130.496823 67.348803C130.208323 67.227826 129.923244 67.1719027 129.682637 67.1719027 128.844503 67.1719027 128.372411 67.9240144 128.372411 68.6966693 128.372411 69.4259551 128.76354 70.2248598 129.73167 70.2248598 129.984821 70.2248598 130.30525 70.143828 130.535594 69.9943187L130.59261 70.6653986C130.280163 70.8103427 129.923244 70.8343099 129.648427 70.8343099 128.419164 70.8343099 127.571908 69.8676353 127.571908 68.6966693 127.571908 67.4595084 128.40434 66.5624526 129.648427 66.5624526 129.954032 66.5624526 130.344021 66.6354953 130.561822 66.7222335L130.496823 67.348803M131.778541 64.74095L132.52887 64.74095 132.52887 67.2438041 132.543694 67.2438041C132.813949 66.810113 133.288321 66.5635939 133.853919 66.5635939 134.907572 66.5635939 135.379664 67.2186957 135.379664 68.3154777L135.379664 70.7361587 134.630475 70.7361587 134.630475 68.6281918C134.630475 67.6740713 134.421797 67.2107067 133.767255 67.1719027 132.909736 67.1719027 132.52887 67.8589607 132.52887 68.8507438L132.52887 70.7361587 131.778541 70.7361587 131.778541 64.74095M140.581794 70.7361587L139.855411 70.7361587 139.855411 70.0901873 139.842868 70.0901873C139.615944 70.553552 139.072013 70.8343099 138.504135 70.8343099 137.450481 70.8343099 136.98067 70.1769255 136.98067 69.0824261L136.98067 66.6594624 137.730999 66.6594624 137.730999 68.7708533C137.730999 69.7226911 137.938537 70.1837732 138.593079 70.226001 139.446037 70.226001 139.831465 69.5378018 139.831465 68.5460187L139.831465 66.6594624 140.581794 66.6594624 140.581794 70.7361587"/>
    <polygon fill="#504D4A" points="142.277 64.742 143.03 64.742 143.03 70.737 142.277 70.737"/>
    <path fill="#504D4A" d="M147.846758 70.56953C147.559398 70.6745289 147.232127 70.8354512 146.559339 70.8354512 145.115697 70.8354512 144.450892 69.9543735 144.450892 68.6281918 144.450892 67.4172806 145.212624 66.5635939 146.362064 66.5635939 147.720183 66.5635939 148.158065 67.5542357 148.158065 68.8667219L145.252535 68.8667219C145.252535 69.6736156 145.883131 70.226001 146.593549 70.226001 147.089587 70.226001 147.662027 69.9703516 147.846758 69.8185597L147.846758 70.56953 147.846758 70.56953zM147.362123 68.3074886C147.362123 67.6832017 146.99152 67.1707614 146.3461 67.1707614 145.610595 67.1707614 145.30727 67.7790702 145.252535 68.3074886L147.362123 68.3074886 147.362123 68.3074886zM154.497091 65.0593706C156.192744 65.0593706 157.181399 66.2942489 157.181399 67.9456989 157.181399 69.6416594 156.199586 70.8343099 154.497091 70.8343099 152.795737 70.8343099 151.813923 69.6416594 151.813923 67.9456989 151.813923 66.2942489 152.80486 65.0593706 154.497091 65.0593706M154.497091 70.1278499C155.782229 70.1278499 156.335283 69.058459 156.335283 67.9456989 156.335283 66.8112543 155.728634 65.7567002 154.497091 65.763548 153.267829 65.7567002 152.660039 66.8112543 152.660039 67.9456989 152.660039 69.058459 153.211953 70.1278499 154.497091 70.1278499M158.265841 69.9383954C158.560043 70.1278499 158.983101 70.226001 159.198621 70.226001 159.541857 70.226001 159.964915 70.0810569 159.964915 69.6416594 159.964915 68.8975368 158.197422 68.9625904 158.197422 67.8190155 158.197422 66.9721766 158.831439 66.5635939 159.637644 66.5635939 159.990002 66.5635939 160.277362 66.634354 160.571564 66.7222335L160.508846 67.3796179C160.338939 67.274619 159.894215 67.1719027 159.716326 67.1719027 159.335459 67.1719027 158.999066 67.3305424 158.999066 67.6672236 158.999066 68.4992257 160.763137 68.2606956 160.763137 69.5617689 160.763137 70.4337163 160.069824 70.8343099 159.341161 70.8343099 158.956874 70.8343099 158.569166 70.7920821 158.22365 70.6094753L158.265841 69.9383954M164.161284 67.2654887L163.083684 67.2654887 163.083684 69.4989978C163.083684 69.9703516 163.371044 70.226001 163.71542 70.226001 163.944624 70.226001 164.114531 70.1552409 164.226282 70.0810569L164.226282 70.7213219C164.058656 70.7703975 163.82489 70.8343099 163.586564 70.8343099 162.811148 70.8343099 162.331074 70.4645312 162.331074 69.6507897L162.331074 67.2654887 161.415399 67.2654887 161.415399 66.6594624 162.331074 66.6594624 162.331074 65.716755 163.083684 65.4759423 163.083684 66.6594624 164.161284 66.6594624 164.161284 67.2654887M165.121432 69.9383954C165.415634 70.1278499 165.840972 70.226001 166.054212 70.226001 166.399728 70.226001 166.822786 70.0810569 166.822786 69.6416594 166.822786 68.8975368 165.058714 68.9625904 165.058714 67.8190155 165.058714 66.9721766 165.68931 66.5635939 166.495515 66.5635939 166.846732 66.5635939 167.134093 66.634354 167.430575 66.7222335L167.365577 67.3796179C167.199091 67.274619 166.753226 67.1719027 166.575337 67.1719027 166.189909 67.1719027 165.855796 67.3305424 165.855796 67.6672236 165.855796 68.4992257 167.622149 68.2606956 167.622149 69.5617689 167.622149 70.4337163 166.927695 70.8343099 166.201313 70.8343099 165.815885 70.8343099 165.423616 70.7920821 165.083801 70.6094753L165.121432 69.9383954M171.442213 67.348803C171.154853 67.227826 170.865212 67.1719027 170.626886 67.1719027 169.788752 67.1719027 169.316661 67.9240144 169.316661 68.6966693 169.316661 69.4259551 169.70779 70.2248598 170.675919 70.2248598 170.92907 70.2248598 171.25064 70.143828 171.482124 69.9943187L171.538 70.6653986C171.225553 70.8103427 170.865212 70.8343099 170.593817 70.8343099 169.363414 70.8343099 168.517298 69.8676353 168.517298 68.6966693 168.517298 67.4595084 169.35087 66.5624526 170.593817 66.5624526 170.897141 66.5624526 171.28827 66.6354953 171.506071 66.7222335L171.442213 67.348803M172.72279 64.74095L173.473119 64.74095 173.473119 67.2438041 173.489083 67.2438041C173.760479 66.810113 174.232571 66.5635939 174.798168 66.5635939 175.854102 66.5635939 176.323913 67.2186957 176.323913 68.3154777L176.323913 70.7361587 175.573584 70.7361587 175.573584 68.6281918C175.573584 67.6740713 175.366046 67.2107067 174.711504 67.1719027 173.856266 67.1719027 173.473119 67.8589607 173.473119 68.8507438L173.473119 70.7361587 172.72279 70.7361587 172.72279 64.74095"/>
    <polyline fill="#504D4A" points="182.535 70.736 181.663 70.736 180.609 67.315 180.593 67.315 179.565 70.736 178.691 70.736 177.381 66.659 178.205 66.659 179.138 70.034 179.154 70.034 180.193 66.659 181.081 66.659 182.101 70.034 182.119 70.034 183.11 66.659 183.844 66.659 182.535 70.736"/>
    <path fill="#504D4A" d="M188.025854 70.56953C187.738494 70.6745289 187.411223 70.8354512 186.740716 70.8354512 185.293653 70.8354512 184.627707 69.9543735 184.627707 68.6281918 184.627707 67.4172806 185.387159 66.5635939 186.54002 66.5635939 187.898138 66.5635939 188.33602 67.5542357 188.33602 68.8667219L185.430491 68.8667219C185.430491 69.6736156 186.061087 70.226001 186.771505 70.226001 187.268683 70.226001 187.843403 69.9703516 188.025854 69.8185597L188.025854 70.56953 188.025854 70.56953zM187.537798 68.3074886C187.537798 67.6832017 187.172896 67.1707614 186.524056 67.1707614 185.789691 67.1707614 185.485226 67.7790702 185.430491 68.3074886L187.537798 68.3074886 187.537798 68.3074886zM189.715805 65.7498524L190.55964 65.7498524 190.55964 64.8984483 189.715805 64.8984483 189.715805 65.7498524zM189.761418 70.7361587L190.512887 70.7361587 190.512887 66.6594624 189.761418 66.6594624 189.761418 70.7361587z"/>
    <polyline fill="#504D4A" points="191.912 70.081 194.26 67.265 192.025 67.265 192.025 66.659 195.13 66.659 195.13 67.315 192.783 70.128 195.216 70.128 195.216 70.736 191.912 70.736 191.912 70.081"/>
    <polyline fill="#504D4A" points="67.445 11.619 70.309 11.619 70.309 17.389 76.033 17.389 76.033 11.619 78.895 11.619 78.895 25.899 76.033 25.899 76.033 19.638 70.309 19.638 70.309 25.899 67.445 25.899 67.445 11.619"/>
    <path fill="#504D4A" d="M92.3121431 14.2376221C91.4124324 13.8473001 90.4100931 13.6236068 89.4088941 13.6236068 88.4305015 13.6236068 87.1624681 14.0550153 87.1624681 15.603749 87.1624681 18.0814947 93.417111 17.0372122 93.417111 21.8249337 93.417111 24.9554986 90.9403408 26.1413013 88.0610385 26.1413013 86.5079257 26.1413013 85.8146125 25.9381513 84.4040395 25.5923397L84.6697335 23.0118777C85.6504068 23.5460025 86.7736198 23.8918141 87.8968328 23.8918141 88.9812749 23.8918141 90.4328994 23.3417112 90.4328994 22.0543334 90.4328994 19.3312099 84.1805372 20.459948 84.1805372 15.7315738 84.1805372 12.5393791 86.6527461 11.3729783 89.1660064 11.3729783 90.3907077 11.3729783 91.5344464 11.5407483 92.5789775 11.8854186L92.3121431 14.2376221M101.073204 17.7151399L102.015107 17.7151399C103.42454 17.7151399 105.036949 17.508566 105.036949 15.7315738 105.036949 14.0093636 103.446206 13.870126 102.015107 13.870126L101.073204 13.870126 101.073204 17.7151399 101.073204 17.7151399zM98.2121472 11.6194974L101.295566 11.6194974C104.363021 11.6194974 108.023441 11.5156398 108.023441 15.4839133 108.023441 17.1638957 106.897947 18.5551311 105.081421 18.7993676L105.081421 18.8404542C105.857978 18.8986601 106.307263 19.6827279 106.591202 20.3104387L108.884381 25.8993474 105.693772 25.8993474 103.978734 21.4391768C103.56936 20.3743511 103.201037 19.968051 101.994581 19.968051L101.073204 19.968051 101.073204 25.8993474 98.2121472 25.8993474 98.2121472 11.6194974 98.2121472 11.6194974z"/>
    <polyline fill="#504D4A" points="67.416 32.777 68.277 32.777 68.277 35.286 71.142 35.286 71.142 32.777 72.002 32.777 72.002 38.777 71.142 38.777 71.142 36.041 68.277 36.041 68.277 38.777 67.416 38.777 67.416 32.777"/>
    <path fill="#504D4A" d="M77.0022369 38.1225885C78.3843021 38.1225885 78.976127 36.9721658 78.976127 35.7760914 78.976127 34.5583324 78.3250055 33.420464 77.0022369 33.4307356 75.6806087 33.420464 75.0272066 34.5583324 75.0272066 35.7760914 75.0272066 36.9721658 75.6201718 38.1225885 77.0022369 38.1225885M77.0022369 32.6752001C78.8221841 32.6752001 79.8895215 33.9968166 79.8895215 35.7760914 79.8895215 37.5987353 78.8313066 38.8804066 77.0022369 38.8804066 75.1720269 38.8804066 74.1160927 37.5987353 74.1160927 35.7760914 74.1160927 33.9968166 75.1811495 32.6752001 77.0022369 32.6752001M86.099692 33.763993C85.7211065 33.5448648 85.3003292 33.4295943 84.8647279 33.4295943 83.4826627 33.4295943 82.5635666 34.4236599 82.5635666 35.7760914 82.5635666 37.1844461 83.5750285 38.1225885 84.8213958 38.1225885 85.2467343 38.1225885 85.8237351 38.0130244 86.1259193 37.8292763L86.174953 38.6589959C85.7211065 38.850733 85.1646314 38.8826892 84.8111329 38.8826892 82.9136442 38.8826892 81.6524527 37.6615063 81.6524527 35.7487004 81.6524527 33.9020893 82.9923261 32.6752001 84.8213958 32.6752001 85.2820842 32.6752001 85.7404919 32.7379711 86.168111 32.9342734L86.099692 33.763993"/>
    <polyline fill="#504D4A" points="88.104 32.777 88.962 32.777 88.962 35.286 91.832 35.286 91.832 32.777 92.688 32.777 92.688 38.777 91.832 38.777 91.832 36.041 88.962 36.041 88.962 38.777 88.104 38.777 88.104 32.777"/>
    <path fill="#504D4A" d="M97.8381229 33.6795373C97.4002409 33.5060609 97.1584936 33.4295943 96.7103487 33.4295943 96.2336959 33.4295943 95.6669579 33.6053533 95.6669579 34.228499 95.6669579 35.3789216 98.2406551 35.1175657 98.2406551 37.0908602 98.2406551 38.3713902 97.2542802 38.8826892 96.0523853 38.8826892 95.6304678 38.8826892 95.2176727 38.757147 94.8219825 38.6293223L94.9109273 37.8304176C95.1994277 37.9502533 95.7205529 38.1214472 96.1561543 38.1214472 96.6453506 38.1214472 97.3329622 37.8509609 97.3329622 37.1502074 97.3329622 35.8023411 94.755844 36.1732611 94.755844 34.3061068 94.755844 33.2412811 95.5939776 32.6752001 96.6784198 32.6752001 97.0729697 32.6752001 97.5473419 32.741395 97.9555757 32.8909043L97.8381229 33.6795373M104.402932 33.763993C104.023206 33.5448648 103.60471 33.4295943 103.167968 33.4295943 101.783622 33.4295943 100.863386 34.4236599 100.863386 35.7760914 100.863386 37.1844461 101.879409 38.1225885 103.126917 38.1225885 103.554536 38.1225885 104.129256 38.0130244 104.42916 37.8292763L104.482754 38.6589959C104.023206 38.850733 103.465591 38.8826892 103.114373 38.8826892 101.218025 38.8826892 99.9545527 37.6615063 99.9545527 35.7487004 99.9545527 33.9020893 101.293286 32.6752001 103.126917 32.6752001 103.586465 32.6752001 104.042592 32.7379711 104.470211 32.9342734L104.402932 33.763993"/>
    <polyline fill="#504D4A" points="106.408 32.777 107.267 32.777 107.267 35.286 110.133 35.286 110.133 32.777 110.995 32.777 110.995 38.777 110.133 38.777 110.133 36.041 107.267 36.041 107.267 38.777 106.408 38.777 106.408 32.777"/>
    <path fill="#504D4A" d="M118.081044,36.2919555 C118.081044,37.9730792 117.233788,38.8792653 115.755936,38.8792653 C114.279224,38.8792653 113.430828,37.9730792 113.430828,36.2919555 L113.430828,32.7767751 L114.289487,32.7767751 L114.289487,36.1812502 C114.289487,37.336238 114.646407,38.1214472 115.755936,38.1214472 C116.860904,38.1214472 117.223525,37.336238 117.223525,36.1812502 L117.223525,32.7767751 L118.081044,32.7767751 L118.081044,36.2919555"/>
    <polyline fill="#504D4A" points="120.467 32.777 121.324 32.777 121.324 38.019 123.832 38.019 123.832 38.777 120.467 38.777 120.467 32.777"/>
    <polyline fill="#504D4A" points="125.664 32.777 129.021 32.777 129.021 33.529 126.522 33.529 126.522 35.286 128.802 35.286 128.802 36.041 126.522 36.041 126.522 38.019 129.021 38.019 129.021 38.777 125.664 38.777 125.664 32.777"/>
    <polyline fill="#504D4A" points="134.443 32.777 137.626 32.777 137.626 33.529 135.303 33.529 135.303 35.286 137.528 35.286 137.528 36.041 135.303 36.041 135.303 38.777 134.443 38.777 134.443 32.777"/>
    <path fill="#504D4A" d="M142.280867 31.4186372L143.087072 31.4186372 143.087072 32.2791716 142.280867 32.2791716 142.280867 31.4186372zM140.869154 31.4186372L141.677639 31.4186372 141.677639 32.2791716 140.869154 32.2791716 140.869154 31.4186372zM144.308352 36.2919555C144.308352 37.9730792 143.457675 38.8826892 141.980963 38.8826892 140.504252 38.8826892 139.651294 37.9730792 139.651294 36.2919555L139.651294 32.7767751 140.513375 32.7767751 140.513375 36.1812502C140.513375 37.336238 140.869154 38.1225885 141.980963 38.1225885 143.087072 38.1225885 143.448552 37.336238 143.448552 36.1812502L143.448552 32.7767751 144.308352 32.7767751 144.308352 36.2919555 144.308352 36.2919555zM147.505803 35.3572371L148.239027 35.3572371C149.049793 35.3572371 149.535569 34.9931648 149.535569 34.4168122 149.535569 33.8792635 149.120493 33.5311693 148.332533 33.5311693L147.505803 33.5311693 147.505803 35.3572371 147.505803 35.3572371zM146.649424 32.7767751L148.114733 32.7767751C149.299523 32.7767751 150.439841 32.9662296 150.439841 34.4031167 150.439841 35.1346851 149.902751 35.6482666 149.206017 35.766961L149.206017 35.7829391C149.472851 35.8867967 149.599426 36.0146215 149.788719 36.3889654L150.923335 38.7776903 149.942662 38.7776903 149.026987 36.6925491C148.757872 36.1082075 148.477354 36.1082075 148.018946 36.1082075L147.505803 36.1082075 147.505803 38.7776903 146.649424 38.7776903 146.649424 32.7767751 146.649424 32.7767751z"/>
    <polyline fill="#504D4A" points="157.24 33.531 155.375 33.531 155.375 32.777 159.96 32.777 159.96 33.531 158.097 33.531 158.097 38.779 157.24 38.779 157.24 33.531"/>
    <polyline fill="#504D4A" points="161.715 32.777 165.072 32.777 165.072 33.529 162.573 33.529 162.573 35.286 164.851 35.286 164.851 36.041 162.573 36.041 162.573 38.019 165.072 38.019 165.072 38.777 161.715 38.777 161.715 32.777"/>
    <path fill="#504D4A" d="M171.442213,33.763993 C171.063627,33.5448648 170.64285,33.4295943 170.208389,33.4295943 C168.820622,33.4295943 167.900386,34.4236599 167.900386,35.7760914 C167.900386,37.1844461 168.914129,38.1225885 170.163917,38.1225885 C170.589255,38.1225885 171.166256,38.0130244 171.463879,37.8292763 L171.516334,38.6589959 C171.063627,38.850733 170.501451,38.8826892 170.152514,38.8826892 C168.252744,38.8826892 166.993833,37.6615063 166.993833,35.7487004 C166.993833,33.9020893 168.331426,32.6752001 170.163917,32.6752001 C170.626886,32.6752001 171.078452,32.7379711 171.508351,32.9342734 L171.442213,33.763993"/>
    <polyline fill="#504D4A" points="173.442 32.777 174.306 32.777 174.306 35.286 177.171 35.286 177.171 32.777 178.029 32.777 178.029 38.777 177.171 38.777 177.171 36.041 174.306 36.041 174.306 38.777 173.442 38.777 173.442 32.777"/>
    <polyline fill="#504D4A" points="180.448 32.777 181.618 32.777 184.259 37.609 184.278 37.609 184.278 32.777 185.136 32.777 185.136 38.777 184.036 38.777 181.322 33.842 181.308 33.842 181.308 38.777 180.448 38.777 180.448 32.777"/>
    <polygon fill="#504D4A" points="187.512 32.774 188.368 32.774 188.368 38.777 187.512 38.777"/>
    <polyline fill="#504D4A" points="190.796 32.777 191.655 32.777 191.655 35.415 194.217 32.777 195.357 32.777 192.543 35.611 195.583 38.777 194.328 38.777 191.655 35.835 191.655 38.777 190.796 38.777 190.796 32.777"/>
    <path fill="#504D4A" d="M68.2879287 48.2652536L69.017732 48.2652536C69.8319189 48.2652536 70.313133 47.9057465 70.313133 47.3316765 70.313133 46.78728 69.8991977 46.4448923 69.1100978 46.4448923L68.2879287 46.4448923 68.2879287 48.2652536 68.2879287 48.2652536zM67.4269888 45.6893568L68.895718 45.6893568C70.0816485 45.6893568 71.2231066 45.8765287 71.2231066 47.3134158 71.2231066 48.0438429 70.682596 48.5574244 69.9858618 48.6784014L69.9858618 48.6978034C70.2549768 48.8005197 70.3838327 48.9294857 70.5685642 49.2981232L71.7043207 51.6879894 70.7236474 51.6879894 69.8068319 49.6074134C69.5399976 49.0219304 69.2571988 49.0219304 68.8010717 49.0219304L68.2879287 49.0219304 68.2879287 51.6879894 67.4269888 51.6879894 67.4269888 45.6893568 67.4269888 45.6893568zM75.8995497 46.498533L74.705637 49.469317 77.0911817 49.469317 75.8995497 46.498533 75.8995497 46.498533zM75.4787724 45.6870742L76.3796235 45.6870742 78.9111289 51.6879894 77.9772086 51.6879894 77.3682789 50.1769183 74.4319607 50.1769183 73.8218907 51.6879894 72.9187591 51.6879894 75.4787724 45.6870742 75.4787724 45.6870742zM81.441494 48.5334573L82.2910307 48.5334573C82.8224188 48.5334573 83.4917853 48.2652536 83.4917853 47.474338 83.4917853 46.7165199 82.7015451 46.4448923 82.1712973 46.4448923L81.441494 46.4448923 81.441494 48.5334573 81.441494 48.5334573zM80.5828347 45.6870742L82.1530522 45.6870742C83.3800341 45.6870742 84.4051798 46.1230479 84.4051798 47.4834683 84.4051798 48.8164978 83.36521 49.2867103 82.2841888 49.2867103L81.441494 49.2867103 81.441494 51.6879894 80.5828347 51.6879894 80.5828347 45.6870742 80.5828347 45.6870742zM87.0689621 48.5334573L87.9219198 48.5334573C88.4533078 48.5334573 89.1238147 48.2652536 89.1238147 47.474338 89.1238147 46.7165199 88.3324341 46.4448923 87.8021864 46.4448923L87.0689621 46.4448923 87.0689621 48.5334573 87.0689621 48.5334573zM86.2125834 45.6870742L87.782801 45.6870742C89.0120635 45.6870742 90.0337882 46.1230479 90.0337882 47.4834683 90.0337882 48.8164978 88.9915378 49.2867103 87.9127972 49.2867103L87.0689621 49.2867103 87.0689621 51.6879894 86.2125834 51.6879894 86.2125834 45.6870742 86.2125834 45.6870742z"/>
    <polyline fill="#504D4A" points="91.935 45.687 95.293 45.687 95.293 46.445 92.796 46.445 92.796 48.197 95.072 48.197 95.072 48.955 92.796 48.955 92.796 50.929 95.293 50.929 95.293 51.688 91.935 51.688 91.935 45.687"/>
    <path fill="#504D4A" d="M98.3273193 48.2652536L99.0594033 48.2652536C99.8758708 48.2652536 100.353664 47.9057465 100.353664 47.3316765 100.353664 46.78728 99.9431495 46.4448923 99.151769 46.4448923L98.3273193 46.4448923 98.3273193 48.2652536 98.3273193 48.2652536zM97.4698003 45.6893568L98.9373893 45.6893568C100.12446 45.6893568 101.263637 45.8765287 101.263637 47.3134158 101.263637 48.0438429 100.726548 48.5574244 100.030954 48.6784014L100.030954 48.6978034C100.296648 48.8005197 100.422083 48.9294857 100.614797 49.2981232L101.745992 51.6879894 100.76874 51.6879894 99.8473628 49.6074134C99.5850897 49.0219304 99.3000103 49.0219304 98.8438832 49.0219304L98.3273193 49.0219304 98.3273193 51.6879894 97.4698003 51.6879894 97.4698003 45.6893568 97.4698003 45.6893568zM106.346034 46.5886951C105.909292 46.4175013 105.668685 46.3410347 105.2194 46.3410347 104.741607 46.3410347 104.173728 46.5133698 104.173728 47.1422219 104.173728 48.2937859 106.747426 48.0267235 106.747426 50.000018 106.747426 51.2839719 105.762191 51.7907057 104.556875 51.7907057 104.139519 51.7907057 103.726724 51.6742939 103.333314 51.5407627L103.417698 50.7429993C103.707338 50.8639763 104.226183 51.0340288 104.662925 51.0340288 105.152121 51.0340288 105.838592 50.7578361 105.838592 50.0525174 105.838592 48.7137815 103.262614 49.0858428 103.262614 47.2198298 103.262614 46.1504389 104.104169 45.5912056 105.186331 45.5912056 105.582021 45.5912056 106.054112 45.6539767 106.463486 45.8012034L106.346034 46.5886951"/>
    <polyline fill="#504D4A" points="108.022 45.687 108.97 45.687 110.403 50.825 110.42 50.825 111.7 45.687 112.918 45.687 114.214 50.825 114.232 50.825 115.667 45.687 116.577 45.687 114.73 51.688 113.622 51.688 112.318 46.445 112.301 46.445 110.986 51.688 109.834 51.688 108.022 45.687"/>
    <polygon fill="#504D4A" points="118.211 45.687 119.071 45.687 119.071 51.689 118.211 51.689"/>
    <polyline fill="#504D4A" points="121.444 45.687 122.308 45.687 122.308 50.929 124.816 50.929 124.816 51.688 121.444 51.688 121.444 45.687"/>
  </g>
</svg>
