<?xml version="1.0" encoding="UTF-8" standalone="no"?>
<svg
   xmlns:sketch="http://www.bohemiancoding.com/sketch/ns"
   xmlns:dc="http://purl.org/dc/elements/1.1/"
   xmlns:cc="http://creativecommons.org/ns#"
   xmlns:rdf="http://www.w3.org/1999/02/22-rdf-syntax-ns#"
   xmlns:svg="http://www.w3.org/2000/svg"
   xmlns="http://www.w3.org/2000/svg"
   xmlns:xlink="http://www.w3.org/1999/xlink"
   xmlns:sodipodi="http://sodipodi.sourceforge.net/DTD/sodipodi-0.dtd"
   xmlns:inkscape="http://www.inkscape.org/namespaces/inkscape"
   width="259"
   height="255"
   viewBox="0 0 259 255"
   version="1.1"
   id="svg4537"
   inkscape:version="0.91 r13725"
   sodipodi:docname="python-summit-sticker.svg">
  <metadata
     id="metadata4581">
    <rdf:RDF>
      <cc:Work
         rdf:about="">
        <dc:format>image/svg+xml</dc:format>
        <dc:type
           rdf:resource="http://purl.org/dc/dcmitype/StillImage" />
        <dc:title>Swiss Python Summit</dc:title>
      </cc:Work>
    </rdf:RDF>
  </metadata>
  <sodipodi:namedview
     pagecolor="#ffffff"
     bordercolor="#666666"
     borderopacity="1"
     objecttolerance="10"
     gridtolerance="10"
     guidetolerance="10"
     inkscape:pageopacity="0"
     inkscape:pageshadow="2"
     inkscape:window-width="1920"
     inkscape:window-height="1065"
     id="namedview4579"
     showgrid="false"
     inkscape:zoom="1.2478355"
     inkscape:cx="232.01045"
     inkscape:cy="111.55736"
     inkscape:window-x="0"
     inkscape:window-y="15"
     inkscape:window-maximized="0"
     inkscape:current-layer="svg4537" />
  <!-- Generator: Sketch 3.3.3 (12072) - http://www.bohemiancoding.com/sketch -->
  <rect
     inkscape:export-filename="/tmp/rect4585.png"
     inkscape:export-xdpi="128.28999"
     inkscape:export-ydpi="128.28999"
     style="opacity:1;fill:#4d4d4d;fill-opacity:1;stroke:#ffffff;stroke-width:1.36099994;stroke-linecap:butt;stroke-linejoin:round;stroke-miterlimit:4;stroke-dasharray:none;stroke-opacity:1"
     id="rect4585"
     width="349.40503"
     height="299.71899"
     x="-26.045099"
     y="-10.259324"
     ry="25.0191" />
  <title
     id="title4539">Swiss Python Summit</title>
  <circle
     inkscape:export-filename="/tmp/rect4585.png"
     inkscape:export-xdpi="128.28999"
     inkscape:export-ydpi="128.28999"
     style="opacity:1;fill:#ffffff;fill-opacity:1;stroke:#ffffff;stroke-width:1.66740811;stroke-linecap:butt;stroke-linejoin:round;stroke-miterlimit:4;stroke-dasharray:none;stroke-opacity:1"
     id="path4583"
     cx="127.5"
     cy="127.5"
     r="122.51347" />
  <desc
     id="desc4541">Created with Sketch.</desc>
  <defs
     id="defs4543">
    <linearGradient
       x1="125.69499"
       y1="175.03358"
       x2="85.93425"
       y2="119.09773"
       id="linearGradient-1"
       gradientTransform="scale(0.99238421,1.0076742)"
       gradientUnits="userSpaceOnUse">
      <stop
         stop-color="#FFD43B"
         offset="0%"
         id="stop4546" />
      <stop
         stop-color="#FFE873"
         offset="100%"
         id="stop4548" />
    </linearGradient>
    <linearGradient
       x1="1.6070679e-07"
       y1="1.3630665e-07"
       x2="111.03198"
       y2="95.52076"
       id="linearGradient-2"
       gradientTransform="scale(0.99516923,1.0048542)"
       gradientUnits="userSpaceOnUse">
      <stop
         stop-color="#5A9FD4"
         offset="0%"
         id="stop4551" />
      <stop
         stop-color="#306998"
         offset="100%"
         id="stop4553" />
    </linearGradient>
    <linearGradient
       x1="115.20922"
       y1="46.560764"
       x2="115.20922"
       y2="181.75922"
       id="linearGradient-3"
       gradientTransform="scale(1.0597166,0.9436485)"
       gradientUnits="userSpaceOnUse">
      <stop
         stop-color="#FBB161"
         offset="0%"
         id="stop4556" />
      <stop
         stop-color="#F76B1C"
         offset="100%"
         id="stop4558" />
    </linearGradient>
    <linearGradient
       x1="66.701958"
       y1="0"
       x2="66.701958"
       y2="131.98775"
       id="linearGradient-4"
       gradientTransform="scale(1.1174278,0.89491243)"
       gradientUnits="userSpaceOnUse">
      <stop
         stop-color="#131D24"
         offset="0%"
         id="stop4561" />
      <stop
         stop-color="#3F7CAE"
         offset="100%"
         id="stop4563" />
    </linearGradient>
  </defs>
  <g
     id="Page-1"
     sketch:type="MSPage"
     inkscape:export-filename="/tmp/rect4585.png"
     inkscape:export-xdpi="128.28999"
     inkscape:export-ydpi="128.28999"
     transform="translate(0.9835255,0.54159361)"
     style="fill:none;fill-rule:evenodd;stroke:none;stroke-width:1">
    <g
       id="Swiss-Python-Summit"
       sketch:type="MSArtboardGroup">
      <g
         id="Logo"
         sketch:type="MSLayerGroup"
         transform="translate(27,25)">
        <g
           id="snake"
           transform="translate(0.003534,0.399994)"
           sketch:type="MSShapeGroup">
          <path
             d="m 153.03784,52.251329 0,21.452324 c 0,16.631697 -14.10047,30.630087 -30.17965,30.630087 l -48.253652,0 c -13.217484,0 -24.154977,11.31238 -24.154979,24.54912 l 0,46.00143 c 0,13.09227 11.384642,20.793 24.154979,24.54912 15.292218,4.49651 29.956652,5.30915 48.253652,0 12.16223,-3.52136 24.15498,-10.60812 24.15498,-24.54912 l 0,-18.41183 -48.253654,0 0,-6.13728 48.253654,0 24.15498,0 c 14.04022,0 19.27219,-9.79335 24.15496,-24.49281 5.04375,-15.13286 4.82914,-29.685557 0,-49.09823 C 191.8533,62.767015 185.22623,52.251329 171.16815,52.251329 l -18.13031,0 0,0 z M 125.89868,168.74702 c 5.00798,0 9.06515,4.10338 9.06515,9.17776 0,5.09243 -4.05718,9.23407 -9.06515,9.23407 -4.9901,0 -9.06516,-4.14164 -9.06516,-9.23407 0,-5.07438 4.07506,-9.17776 9.06516,-9.17776 l 0,0 z"
             id="snake-bottom"
             style="fill:url(#linearGradient-1)"
             inkscape:connector-curvature="0" />
          <path
             d="M 98.951018,0.00165632 C 90.69233,0.04003096 82.805467,0.74437779 75.86584,1.9723422 55.422569,5.583997 51.710864,13.1435 51.710862,27.084511 l 0,18.411837 48.309958,0 0,6.137279 -48.309958,0 -18.130311,0 c -14.040218,0 -26.3342354,8.438981 -30.1796467,24.49281 -4.4356334,18.401416 -4.6323778,29.884203 0,49.098233 3.4340443,14.30218 11.6350077,24.49281 25.6752227,24.49281 l 16.610067,0 0,-22.07168 c 0,-15.94549 13.796412,-30.01073 30.179646,-30.010734 l 48.25365,0 c 13.43211,0 24.15499,-11.059559 24.15498,-24.549115 l 0,-46.00144 c 0,-13.092271 -11.04481,-22.9271216 -24.15498,-25.1121688 -8.29893,-1.3814626 -16.90978,-2.00906052 -25.168472,-1.97068588 l 0,0 z M 72.825354,14.809953 c 4.990086,0 9.065155,4.141632 9.065155,9.234071 -4e-6,5.07439 -4.075069,9.177766 -9.065155,9.177766 -5.007977,-2e-6 -9.065155,-4.103378 -9.065155,-9.177766 -2e-6,-5.092438 4.057178,-9.234071 9.065155,-9.234071 l 0,0 z"
             id="snake-top"
             style="fill:url(#linearGradient-2)"
             inkscape:connector-curvature="0" />
        </g>
        <g
           id="mountain"
           transform="translate(0,32)"
           sketch:type="MSShapeGroup">
          <path
             d="M 50.453093,105.99243 72.315874,72.847765 c 0.755127,-0.0754 1.519769,-0.114029 2.292197,-0.114029 l 48.253649,0 c 15.48471,-2e-6 29.1343,-12.982431 30.12244,-28.796742 l 40.74099,54.88104 c -4.51136,12.121006 -10.02644,19.917136 -22.55346,19.917136 l -24.15499,0 -48.25365,0 0,6.13728 48.25365,0 0,18.41184 c 1e-5,13.94099 -11.99275,21.02775 -24.15498,24.54911 -18.29699,5.30915 -32.961431,4.49652 -48.253649,0 -12.770336,-3.75611 -24.154978,-11.45684 -24.154978,-24.54911 l 0,-37.29186 0,0 z m 75.449117,31.15458 c 5.00798,1e-5 9.06515,4.10338 9.06515,9.17776 0,5.09243 -4.05717,9.23407 -9.06515,9.23407 -4.99009,0 -9.06515,-4.14164 -9.06515,-9.23407 0,-5.07438 4.07505,-9.17776 9.06515,-9.17776 z"
             id="bottom"
             style="fill:url(#linearGradient-3)"
             inkscape:connector-curvature="0" />
          <path
             d="M 45.689727,100.07489 14.340104,54.895334 0.79123328,80.178762 C 1.3542031,84.319428 2.2219992,88.72018 3.4044381,93.624663 6.8384825,107.92685 15.039445,118.11747 29.07966,118.11747 l 16.610067,0 0,-18.04258 z M 76.80965,66.03506 120.36749,0 148.278,37.597464 l 0,3.888481 c 1e-5,13.489556 -10.72287,24.549115 -24.15497,24.549115 l -47.31338,0 z"
             id="top"
             style="fill:url(#linearGradient-4)"
             inkscape:connector-curvature="0" />
        </g>
        <g
           id="rays"
           transform="translate(1,42)"
           sketch:type="MSShapeGroup"
           style="stroke:#fffcea">
          <path
             d="m 81.701592,62.733736 -32.248499,58.515844 0,12.03471 c 0,13.09227 11.384642,20.793 24.154978,24.54911 0.04744,0.0139 0.09487,0.0279 0.142302,0.0417 l 26.216555,-95.141404 -18.265336,0 0,0 z"
             id="path4575"
             inkscape:connector-curvature="0"
             style="fill:#fffcea" />
          <path
             d="M 85.597709,56.03506 116.23226,0.44776917 100.91499,56.03506 l -15.317281,0 z"
             id="top-right"
             inkscape:connector-curvature="0"
             style="fill:#fffdeb" />
          <path
             d="M 0.82985191,76.431656 10.880867,55.712467 3.2819114,86.849066 C 2.9608946,85.800432 2.6685662,84.724709 2.4044381,83.624663 1.7969781,81.105059 1.2725597,78.718402 0.82985191,76.431656 Z"
             id="left"
             inkscape:connector-curvature="0"
             style="fill:#fffcea" />
        </g>
      </g>
    </g>
  </g>
  <path
     style="color:#000000;font-style:normal;font-variant:normal;font-weight:normal;font-stretch:normal;font-size:medium;line-height:normal;font-family:sans-serif;text-indent:0;text-align:start;text-decoration:none;text-decoration-line:none;text-decoration-style:solid;text-decoration-color:#000000;letter-spacing:normal;word-spacing:normal;text-transform:none;direction:ltr;block-progression:tb;writing-mode:lr-tb;baseline-shift:baseline;text-anchor:start;white-space:normal;clip-rule:nonzero;display:inline;overflow:visible;visibility:visible;opacity:0.76000001;isolation:auto;mix-blend-mode:normal;color-interpolation:sRGB;color-interpolation-filters:linearRGB;solid-color:#000000;solid-opacity:1;fill:none;fill-opacity:1;fill-rule:nonzero;stroke:#00fc00;stroke-width:1.57770228;stroke-linecap:butt;stroke-linejoin:round;stroke-miterlimit:4;stroke-dasharray:none;stroke-dashoffset:0;stroke-opacity:1;color-rendering:auto;image-rendering:auto;shape-rendering:auto;text-rendering:auto;enable-background:accumulate"
     d="m 127.49908,10.788852 c -64.4487,-2e-6 -116.710229,52.262955 -116.710229,116.711158 0,64.4482 52.26152,116.71114 116.710229,116.71114 64.4487,0 116.71207,-52.26294 116.71207,-116.71114 0,-64.448202 -52.26337,-116.711158 -116.71207,-116.711158 z"
     id="path4583-8"
     inkscape:connector-curvature="0"
     sodipodi:nodetypes="sssss" />
  <text
     xml:space="preserve"
     style="font-style:normal;font-weight:normal;font-size:20px;line-height:125%;font-family:Sans;letter-spacing:0px;word-spacing:0px;fill:#000000;fill-opacity:1;stroke:none;stroke-width:1px;stroke-linecap:butt;stroke-linejoin:miter;stroke-opacity:1"
     id="text4605"
     sodipodi:linespacing="125%"><textPath
       xlink:href="#path4583-8"
       id="textPath4195"
       style="font-size:17.5px"><tspan
         style="font-style:normal;font-variant:normal;font-weight:normal;font-stretch:normal;font-size:17.5px;font-family:'Open Sans';-inkscape-font-specification:'Open Sans'"
         id="tspan4607" /></textPath></text>
</svg>
