<?xml version="1.0" encoding="UTF-8"?>
<svg xmlns="http://www.w3.org/2000/svg" width="341" height="98" viewBox="0 0 341 98">
  <g fill="none">
    <circle cx="25.82" cy="26.92" r="6.88" fill="#004B87"/>
    <circle cx="46.13" cy="26.92" r="6.88" fill="#0077C8"/>
    <circle cx="66.45" cy="26.92" r="6.88" fill="#41B6E6"/>
    <circle cx="25.82" cy="47.23" r="6.88" fill="#FFCE34"/>
    <circle cx="66.45" cy="47.23" r="6.88" fill="#41B6E6"/>
    <circle cx="25.82" cy="6.88" r="4.13" fill="#004B87"/>
    <circle cx="46.13" cy="6.88" r="5.5" fill="#0077C8"/>
    <circle cx="66.45" cy="6.88" r="6.88" fill="#0077C8"/>
    <circle cx="25.82" cy="67.54" r="6.88" fill="#FFCE34"/>
    <circle cx="46.13" cy="67.54" r="6.88" fill="#F47920"/>
    <circle cx="66.45" cy="67.54" r="6.88" fill="#AF272F"/>
    <circle cx="66.45" cy="87.86" r="4.13" fill="#AF272F"/>
    <circle cx="46.13" cy="87.86" r="5.5" fill="#F47920"/>
    <circle cx="25.82" cy="87.86" r="6.88" fill="#F47920"/>
    <circle cx="86.76" cy="67.54" r="4.13" fill="#AF272F"/>
    <circle cx="86.76" cy="47.23" r="5.5" fill="#41B6E6"/>
    <circle cx="5.5" cy="26.92" r="4.13" fill="#004B87"/>
    <circle cx="5.5" cy="47.23" r="5.5" fill="#FFCE34"/>
    <g fill="#002B49" transform="translate(116 78)">
      <path d="M8.53 15.36L7.13 15.36 6.96 13.94C6.34270684 14.9682769 5.22932334 15.5952676 4.03 15.59 1.6 15.59.23 13.52.23 10.36.23 7.2 1.71 5.05 4.18 5.05 5.23384947 5.05791587 6.23284274 5.5209529 6.92 6.32L6.92 1.02 8.53 1.21 8.53 15.36zM6.92 12.71L6.92 7.71C6.40326226 6.87810067 5.49919603 6.36579647 4.52 6.35 2.95 6.35 1.95 7.67 1.95 10.35 1.95 13.03 2.83 14.35 4.35 14.35 5.44515484 14.3336164 6.43835105 13.7036904 6.92 12.72L6.92 12.71zM19.8 14.46L19.42 15.59C18.5146108 15.5587491 17.7432947 14.9228236 17.54 14.04 16.8798233 15.0456957 15.7422351 15.6334496 14.54 15.59 13.7074816 15.6648398 12.8828058 15.3793119 12.2747953 14.805717 11.6667847 14.2321222 11.3337422 13.425463 11.36 12.59 11.36 10.44 12.97 9.27 15.73 9.27L17.38 9.27 17.38 8.48C17.38 6.98 16.67 6.41 15.21 6.41 14.2786986 6.44574926 13.3596824 6.63495849 12.49 6.97L12.09 5.78C13.1740332 5.34049467 14.3303761 5.10651327 15.5 5.09 17.9 5.09 18.99 6.32 18.99 8.41L18.99 13.09C18.96 13.98 19.26 14.27 19.8 14.46zM17.35 12.72L17.35 10.32 15.91 10.32C14.03 10.32 13.03 11.03 13.03 12.47 12.9595511 12.9815196 13.1282384 13.4970222 13.487448 13.8679451 13.8466576 14.2388681 14.3564838 14.4240045 14.87 14.37 15.9543437 14.3723592 16.9332576 13.7210657 17.35 12.72zM25.41 15.59C24.6592387 15.6483602 23.9223947 15.3638329 23.4056915 14.8160498 22.8889884 14.2682668 22.6479365 13.5160774 22.75 12.77L22.75 6.52 21.01 6.52 21.01 5.28 22.75 5.28 22.75 2.96 24.36 2.79 24.36 5.28 26.79 5.28 26.62 6.53 24.36 6.53 24.36 12.7C24.36 13.75 24.72 14.25 25.63 14.25 26.1296997 14.2436853 26.6165299 14.0906815 27.03 13.81L27.64 14.92C26.9833549 15.3675553 26.2045788 15.6015373 25.41 15.59L25.41 15.59zM37.01 14.46L36.63 15.59C35.7246108 15.5587491 34.9532947 14.9228236 34.75 14.04 34.0898233 15.0456957 32.9522351 15.6334496 31.75 15.59 30.9174816 15.6648398 30.0928058 15.3793119 29.4847953 14.805717 28.8767847 14.2321222 28.5437422 13.425463 28.57 12.59 28.57 10.44 30.18 9.27 32.94 9.27L34.59 9.27 34.59 8.48C34.59 6.98 33.88 6.41 32.42 6.41 31.4886986 6.44574926 30.5696824 6.63495849 29.7 6.97L29.3 5.78C30.3840332 5.34049467 31.5403761 5.10651327 32.71 5.09 35.11 5.09 36.2 6.32 36.2 8.41L36.2 13.09C36.13 13.98 36.47 14.27 37.01 14.46zM34.56 12.72L34.56 10.32 33.13 10.32C31.25 10.32 30.25 11.03 30.25 12.47 30.1795511 12.9815196 30.3482384 13.4970222 30.707448 13.8679451 31.0666576 14.2388681 31.5764838 14.4240045 32.09 14.37 33.1707049 14.3683193 34.1446553 13.7177047 34.56 12.72zM41.45 14.35C41.4555003 15.0348005 40.9048266 15.594404 40.2200262 15.5999191 39.5352258 15.6054343 38.9756104 15.0547727 38.9700804 14.3699725 38.9645504 13.6851722 39.5151999 13.1255449 40.2 13.12 40.5304724 13.1118592 40.8501019 13.2381734 41.0857295 13.470031 41.3213571 13.7018885 41.4528099 14.0194393 41.45 14.35L41.45 14.35z"/>
      <polygon points="56.31 15.36 54.45 6.73 52.53 15.36 50.38 15.36 47.98 5.28 49.61 5.28 51.51 14.28 53.58 5.28 55.38 5.28 57.38 14.28 59.3 5.28 60.83 5.28 58.51 15.36"/>
      <path d="M70.39 10.88L63.89 10.88C64.06 13.31 65.17 14.27 66.71 14.27 67.6691043 14.2746651 68.6021088 13.9577956 69.36 13.37L70.07 14.37C69.1008746 15.1920147 67.87079 15.6422186 66.6 15.64 63.82 15.64 62.19 13.64 62.19 10.46 62.19 7.28 63.76 5.09 66.33 5.09 68.9 5.09 70.43 6.99 70.43 10.04 70.43 10.34 70.41 10.67 70.39 10.88zM68.84 9.54C68.84 7.54 68.03 6.34 66.37 6.34 64.97 6.34 64.03 7.34 63.9 9.69L68.85 9.69 68.84 9.54zM81.64 10.3C81.64 13.48 80.16 15.59 77.71 15.59 76.6346835 15.5727884 75.6289003 15.0551059 74.99 14.19L74.82 15.32 73.42 15.32 73.42 1.19 75.03 1 75.03 6.54C75.6821264 5.58721047 76.7654442 5.02118625 77.92 5.03 80.21 5.05 81.64 6.95 81.64 10.3zM79.92 10.3C79.92 7.41 78.92 6.3 77.49 6.3 76.4488649 6.37392498 75.5209859 6.98367405 75.04 7.91L75.04 12.91C75.5237741 13.7419754 76.3984369 14.2697892 77.36 14.31 78.88 14.31 79.92 13.1 79.92 10.3zM86.13 14.35C86.1355003 15.0348005 85.5848266 15.594404 84.9000262 15.5999191 84.2152258 15.6054343 83.6556104 15.0547727 83.6500804 14.3699725 83.6445504 13.6851722 84.1951999 13.1255449 84.88 13.12 85.2104724 13.1118592 85.5301019 13.2381734 85.7657295 13.470031 86.0013571 13.7018885 86.1328099 14.0194393 86.13 14.35zM101.61 14.42L101.23 15.55C100.324611 15.5187491 99.5532947 14.8828236 99.35 14 98.6898233 15.0056957 97.5522351 15.5934496 96.35 15.55 95.5166998 15.6281776 94.6900839 15.3437766 94.081285 14.769438 93.472486 14.1950993 93.1404555 13.3864378 93.17 12.55 93.17 10.4 94.78 9.24 97.54 9.24L99.13 9.24 99.13 8.45C99.13 6.96 98.42 6.38 96.97 6.38 96.0386765 6.4155669 95.1196306 6.60478223 94.25 6.94L93.85 5.75C94.933898 5.3100459 96.0903261 5.07604726 97.26 5.06 99.65 5.06 100.75 6.29 100.75 8.37L100.75 13.04C100.76 13.94 101.07 14.19 101.61 14.42zM99.13 12.68L99.13 10.28 97.69 10.28C95.81 10.28 94.82 10.99 94.82 12.43 94.7454182 12.9423798 94.9127209 13.4603729 95.2729262 13.8323241 95.6331315 14.2042752 96.1454915 14.3881077 96.66 14.33 97.7407049 14.3283193 98.7146553 13.6777047 99.13 12.68L99.13 12.68zM112.69 10.26C112.69 13.34 111.35 15.55 108.76 15.55 107.746828 15.579646 106.776549 15.1406224 106.13 14.36L106.13 19.19 104.52 19.38 104.52 5.25 105.9 5.25 106.03 6.65C106.696129 5.64094752 107.820943 5.02979887 109.03 5.02 111.62 5.02 112.69 7.06 112.69 10.26zM110.97 10.26C110.97 7.58 110.17 6.26 108.59 6.26 107.544545 6.3608753 106.620002 6.98099523 106.13 7.91L106.13 12.91C106.619726 13.6949676 107.474883 14.1771709 108.4 14.19 110.07 14.19 110.97 12.96 110.97 10.26zM124.01 10.26C124.01 13.34 122.67 15.55 120.08 15.55 119.049515 15.5953835 118.057395 15.1548525 117.4 14.36L117.4 19.19 115.79 19.38 115.79 5.25 117.13 5.25 117.26 6.65C117.926129 5.64094752 119.050943 5.02979887 120.26 5.02 122.94 5.02 124.01 7.06 124.01 10.26zM122.29 10.26C122.29 7.58 121.49 6.26 119.91 6.26 118.854422 6.33622747 117.909454 6.94236252 117.4 7.87L117.4 12.87C117.889431 13.6852869 118.769096 14.185786 119.72 14.19 121.39 14.19 122.29 12.96 122.29 10.26zM129.29 14.19C129.511732 14.1955867 129.732453 14.1582341 129.94 14.08L130.36 15.21C129.917415 15.4251288 129.432095 15.5379143 128.94 15.54 127.71 15.54 127.01 14.81 127.01 13.38L127.01 1.19 128.62 1 128.62 13.37C128.62 13.92 128.8 14.19 129.29 14.19zM134.62 1.61C134.632161 2.07270795 134.363339 2.4968386 133.939703 2.68332934 133.516066 2.86982009 133.021721 2.78164688 132.688683 2.46019317 132.355645 2.13873946 132.250034 1.64782352 132.421417 1.21785314 132.592799.787882753 133.007151.504220038 133.47.5 133.772842.483244391 134.068971.593430193 134.287202.804070388 134.505432 1.01471058 134.626028 1.30675481 134.62 1.61zM132.69 15.33L132.69 5.25 134.3 5.25 134.3 15.32 132.69 15.33zM144.67 6.09L143.86 7.19C143.264284 6.66555086 142.493509 6.38364685 141.7 6.4 140.05 6.4 139 7.68 139 10.4 139 13.12 140.05 14.23 141.7 14.23 142.508079 14.2301093 143.289131 13.9389901 143.9 13.41L144.67 14.5C143.835908 15.2185345 142.770906 15.6125851 141.67 15.61 138.99 15.61 137.3 13.68 137.3 10.42 137.3 7.16 138.97 5.08 141.67 5.08 142.760397 5.0347592 143.828981 5.39451587 144.67 6.09zM154.65 14.42L154.27 15.55C153.364611 15.5187491 152.593295 14.8828236 152.39 14 151.729823 15.0056957 150.592235 15.5934496 149.39 15.55 148.5567 15.6281776 147.730084 15.3437766 147.121285 14.769438 146.512486 14.1950993 146.180455 13.3864378 146.21 12.55 146.21 10.4 147.82 9.24 150.58 9.24L152.23 9.24 152.23 8.45C152.23 6.96 151.52 6.38 150.07 6.38 149.138677 6.4155669 148.219631 6.60478223 147.35 6.94L146.95 5.75C148.033898 5.3100459 149.190326 5.07604726 150.36 5.06 152.75 5.06 153.85 6.29 153.85 8.37L153.85 13.04C153.8 13.94 154.13 14.19 154.65 14.42zM152.2 12.68L152.2 10.28 150.76 10.28C148.88 10.28 147.89 10.99 147.89 12.43 147.815418 12.9423798 147.982721 13.4603729 148.342926 13.8323241 148.703132 14.2042752 149.215491 14.3881077 149.73 14.33 150.807062 14.3243003 151.776064 13.6743603 152.19 12.68L152.2 12.68zM160.26 15.55C159.509239 15.6083602 158.772395 15.3238329 158.255692 14.7760498 157.738988 14.2282668 157.497936 13.4760774 157.6 12.73L157.6 6.49 155.86 6.49 155.86 5.25 157.6 5.25 157.6 2.93 159.21 2.76 159.21 5.25 161.64 5.25 161.47 6.5 159.21 6.5 159.21 12.67C159.21 13.72 159.57 14.22 160.47 14.22 160.969794 14.2142755 161.45679 14.0612195 161.87 13.78L162.48 14.89C161.825281 15.3326408 161.050201 15.5630699 160.26 15.55L160.26 15.55zM166.27 1.61C166.282205 2.0736221 166.012324 2.49842565 165.587448 2.68436706 165.162571 2.87030847 164.667399 2.78031965 164.335112 2.45677709 164.002825 2.13323452 163.899666 1.64063762 164.074213 1.21095441 164.24876.781271205 164.666217.500160617 165.13.5 165.431154.486114122 165.72461.59757626 165.940608.807889563 166.156605 1.01820287 166.275852 1.30858278 166.27 1.61L166.27 1.61zM164.33 15.32L164.33 5.25 165.94 5.25 165.94 15.32 164.33 15.32zM177.8 10.26C177.8 13.42 176.17 15.55 173.36 15.55 170.55 15.55 168.94 13.55 168.94 10.3 168.94 7.05 170.57 5.01 173.38 5.01 176.19 5.01 177.8 7.05 177.8 10.26zM170.66 10.26C170.66 12.92 171.66 14.21 173.36 14.21 175.06 14.21 176.08 12.93 176.08 10.21 176.08 7.49 175.08 6.26 173.38 6.26 171.68 6.26 170.65 7.6 170.65 10.3L170.66 10.26zM188.37 8.1L188.37 15.32 186.76 15.32 186.76 8.32C186.76 6.77 186.13 6.32 185.09 6.32 183.922478 6.39965287 182.893044 7.11411047 182.41 8.18L182.41 15.36 180.8 15.36 180.8 5.25 182.13 5.25 182.26 6.76C182.95839 5.69054251 184.142835 5.03834837 185.42 5.02 187.31 5.02 188.37 6.19 188.37 8.1zM198.03 6.19L197.33 7.19C196.597885 6.58582818 195.679212 6.25369266 194.73 6.25 193.54 6.25 192.73 6.81 192.73 7.67 192.73 8.53 193.3 8.92 194.97 9.36 197.1 9.92 198.28 10.72 198.28 12.48 198.28 14.48 196.42 15.48 194.39 15.48 193.029745 15.5272353 191.700439 15.0675022 190.66 14.19L191.56 13.19C192.352147 13.8532245 193.357029 14.2083063 194.39 14.19 195.73 14.19 196.63 13.56 196.63 12.62 196.63 11.51 196.11 11.13 194.12 10.62 191.96 10.05 191.12 9.14 191.12 7.71 191.12 6.28 192.63 4.99 194.68 4.99 195.902022 4.98949813 197.086237 5.41369446 198.03 6.19zM202.49 14.31C202.4955 14.9948005 201.944827 15.554404 201.260026 15.5599191 200.575226 15.5654343 200.01561 15.0147727 200.01008 14.3299725 200.00455 13.6451722 200.5552 13.0855449 201.24 13.08 201.570472 13.0718592 201.890102 13.1981734 202.12573 13.430031 202.361357 13.6618885 202.49281 13.9794393 202.49 14.31z"/>
    </g>
    <g fill="#002B49" transform="translate(117 16)">
      <path d="M13.59 14.79C17.75787 14.7882105 21.868017 15.7643704 25.59 17.64L25.59 24.19C22.1079923 22.0987724 18.1314924 20.9734782 14.07 20.93 11.07 20.93 7.89 21.83 7.89 24.54 7.89 30.99 27.94 28.01 27.94 40.15 27.94 47.51 21.14 49.93 13.58 49.93 8.72 49.93 3.8 48.75.58 46.74L.58 40.12C4.41379604 42.4302852 8.80391091 43.6539865 13.28 43.66 17.44 43.66 20.5 42.97 20.5 40.26 20.5 34.08.38 36.65.38 24.72.34 17.43 7 14.79 13.59 14.79zM49.47 14.79C62.72 14.79 67.3 25.48 65.15 35.12L40.13 35.12C40.96 41.12 46.79 43.59 52.9 43.59 56.5384937 43.5839552 60.1295382 42.763926 63.41 41.19L63.41 47.57C59.6404802 49.1814214 55.5682268 49.9624482 51.47 49.86 41.27 49.86 32.6 44.03 32.6 32.3 32.6 20.27 41.76 14.79 49.47 14.79zM49.82 20.97C44.82 20.97 40.31 23.97 40.04 29.57L58.5 29.57C58.9 26.66 57.13 20.97 49.81 20.97L49.82 20.97zM103.52 43.73C104.276349 43.697504 105.024052 43.5560466 105.74 43.31L105.74 48.65C104.231699 49.2167848 102.631175 49.498233 101.02 49.48 97.97 49.48 95.54 48.3 94.36 45.59 90.8118298 48.4603862 86.3628811 49.9835135 81.8 49.89 75.8 49.89 70.14 46.56 70.14 39.69 70.14 31.15 78.05 28.52 84.99 28.52 87.9058829 28.566954 90.8099915 28.9019147 93.66 29.52L93.66 28.32C93.66 24.16 90.61 21.24 84.92 21.24 80.7845753 21.2507301 76.6970944 22.1261322 72.92 23.81L72.92 17.01C77.0311784 15.5942693 81.3422331 14.8448142 85.69 14.79 95.13 14.79 101.13 19.3 101.13 29.36L101.13 41.3C101.042305 41.9602915 101.264154 42.6241118 101.731225 43.0990005 102.198297 43.5738892 102.858344 43.8067242 103.52 43.73L103.52 43.73zM77.78 39.19C77.78 42.45 80.69 44.12 84.03 44.12 87.6522162 44.1311307 91.1278675 42.6904462 93.68 40.12L93.68 34.57C91.3045263 34.0685166 88.8873024 33.7906363 86.46 33.74 82.22 33.73 77.78 35.05 77.78 39.19zM129.06 14.79C137.46 14.79 142.8 20.48 142.8 28.39L142.8 49 135.38 49 135.38 29.36C135.38 23.95 132.05 21.36 127.61 21.36 123.38 21.36 120.19 24.2 118.31 26.91L118.31 49 110.88 49 110.88 15.69 117.47 15.69 117.47 20.27C120.337185 16.824862 124.577943 14.8197409 129.06 14.79L129.06 14.79zM161.19 3.83L161.19 15.69 173.26 15.69 173.26 22.19 161.19 22.19 161.19 37.48C161.19 41.85 163.19 43.31 167.5 43.31 169.807444 43.3078865 172.092714 42.859661 174.23 41.99L174.23 48.37C171.333611 49.3599662 168.290808 49.8535765 165.23 49.83 158.78 49.83 153.78 46.64 153.78 38.83L153.78 22.19 147.78 22.19 147.78 15.69 153.78 15.69 153.78 5.63 161.19 3.83zM184.13 9.31C181.7 9.31 179.55 7.92 179.55 4.87 179.55 1.82 181.7.5 184.13.5 185.328406.403658937 186.510269.827997778 187.3737 1.66462579 188.23713 2.5012538 188.698515 3.66915236 188.64 4.87 188.726533 6.08449571 188.27665 7.27593615 187.408988 8.13013152 186.541325 8.98432689 185.342994 9.41551901 184.13 9.31zM180.38 49L180.38 15.69 187.81 15.69 187.81 49 180.38 49zM208.79 14.79C212.95787 14.7882105 217.068017 15.7643704 220.79 17.64L220.79 24.19C217.307992 22.0987724 213.331492 20.9734782 209.27 20.93 206.27 20.93 203.09 21.83 203.09 24.54 203.13 30.96 223.13 27.97 223.13 40.12 223.13 47.48 216.33 49.9 208.77 49.9 203.91 49.9 198.99 48.72 195.77 46.71L195.77 40.12C199.603796 42.4302852 203.993911 43.6539865 208.47 43.66 212.63 43.66 215.69 42.97 215.69 40.26 215.69 34.08 195.57 36.65 195.57 24.72 195.54 17.43 202.2 14.79 208.79 14.79z"/>
    </g>
  </g>
</svg>
