<svg xmlns="http://www.w3.org/2000/svg" width="721" height="125" viewBox="0 0 721 125">
  <path fill="#67B64D" fill-rule="evenodd" d="M689.386665,97.788866 L699.570951,107.749388 L709.918524,97.788866 L720,97.788866 L704.058326,112.351669 L704.058326,123.872492 L695.361769,123.872492 L695.361769,112.351669 L679.601525,97.788866 L689.386665,97.788866 L689.386665,97.788866 Z M652.429318,97.788866 L669.350715,116.536661 L669.241857,97.8493427 L677.811413,97.788866 L677.811413,123.872492 L667.729938,123.872492 L649.955818,104.144973 L649.961866,123.872492 L641.434643,123.872492 L641.434643,97.788866 L652.429318,97.788866 L652.429318,97.788866 Z M611.734507,97.788866 L594.244628,123.872492 L603.449191,123.872492 L607.126178,117.661529 L625.093823,117.661529 L628.885716,123.872492 L638.561997,123.872492 L620.951165,97.788866 L611.734507,97.788866 L611.734507,97.788866 Z M615.998119,102.98382 L622.269558,113.004818 L609.962538,113.004818 L615.998119,102.98382 L615.998119,102.98382 Z M560.909839,97.788866 L560.909839,123.872492 L569.612445,123.872492 L569.612445,114.752597 L580.147496,114.752597 C585.312211,114.752597 589.346011,114.637691 592.859711,113.083438 C596.083122,111.631996 597.631327,109.412499 597.631327,106.291898 C597.631327,103.062439 595.623499,100.594988 591.940464,99.1012116 C589.412535,98.0912498 585.433165,97.788866 579.796731,97.788866 L560.909839,97.788866 L560.909839,97.788866 Z M579.687873,102.433481 C585.433165,102.433481 587.967141,103.382966 587.967141,106.291898 C587.967141,108.904494 585.433165,110.13822 580.195878,110.13822 L569.612445,110.13822 L569.612445,102.433481 L579.687873,102.433481 L579.687873,102.433481 Z M518.612394,97.788866 L529.147446,117.800625 L539.670402,97.788866 L552.406807,97.788866 L552.406807,123.872492 L544.599257,123.872492 L544.575067,103.570444 L533.979539,123.872492 L524.762881,123.872492 L513.840778,103.352728 L513.88916,123.872492 L505.839703,123.872492 L505.839703,97.788866 L518.612394,97.788866 L518.612394,97.788866 Z M458.69807,110.5797 C458.69807,120.056408 465.090463,124.416783 479.302501,124.416783 C493.3573,124.416783 499.912981,120.056408 499.912981,110.827655 C499.912981,101.610997 493.3573,97.2869089 479.302501,97.2869089 C465.435181,97.2869089 458.69807,101.610997 458.69807,110.5797 L458.69807,110.5797 Z M479.302501,101.744046 C486.964907,101.744046 490.472559,104.689264 490.472559,110.827655 C490.472559,116.972094 486.964907,119.911264 479.302501,119.911264 C471.537286,119.911264 468.198969,116.972094 468.198969,110.615986 C468.198969,104.689264 471.821526,101.744046 479.302501,101.744046 L479.302501,101.744046 Z M430.552186,111.51709 C430.552186,117.359145 433.376451,119.32464 440.688091,119.32464 L454.954558,119.32464 L454.954558,123.872492 L440.288945,123.872492 C435.263326,123.872492 431.417004,123.624537 427.389252,121.580423 C423.131688,119.445593 421.057335,116.028656 421.057335,111.305421 C421.057335,102.082716 427.207822,97.788866 440.506661,97.788866 L454.954558,97.788866 L454.954558,102.252051 L440.688091,102.252051 C433.376451,102.252051 430.552186,105.058172 430.552186,111.51709 L430.552186,111.51709 Z M358.209888,97.788866 L358.209888,123.872492 L366.900398,123.872492 L366.900398,113.621681 L377.139113,113.621681 L386.234818,123.872492 L396.026005,123.872492 L385.726813,112.97458 C391.066911,112.248859 394.066558,109.672549 394.066558,105.632702 C394.066558,100.153507 389.409848,97.788866 379.61866,97.788866 L358.209888,97.788866 L358.209888,97.788866 Z M377.544308,102.433481 C382.733213,102.433481 385.26719,103.020106 385.26719,105.705274 C385.26719,108.360203 382.733213,109.0194 377.544308,109.0194 L366.900398,109.0194 L366.900398,102.433481 L377.544308,102.433481 L377.544308,102.433481 Z M311.074302,110.5797 C311.074302,120.056408 317.466696,124.416783 331.678734,124.416783 C345.721437,124.416783 352.283166,120.056408 352.283166,110.827655 C352.283166,101.610997 345.721437,97.2869089 331.678734,97.2869089 C317.811413,97.2869089 311.074302,101.610997 311.074302,110.5797 L311.074302,110.5797 Z M331.678734,101.744046 C339.335092,101.744046 342.848791,104.689264 342.848791,110.827655 C342.848791,116.972094 339.335092,119.911264 331.678734,119.911264 C323.907471,119.911264 320.575201,116.972094 320.575201,110.615986 C320.575201,104.689264 324.197759,101.744046 331.678734,101.744046 L331.678734,101.744046 Z M283.738808,102.433481 C279.190955,102.433481 277.056126,103.449491 277.056126,105.856466 C277.056126,107.749388 278.900667,108.68073 282.523225,108.68073 L294.038,108.68073 C303.242562,108.68073 307.215885,110.615986 307.215885,116.052847 C307.215885,121.538089 302.559175,123.872492 292.767988,123.872492 L269.635628,123.872492 L269.635628,119.227877 L291.395165,119.227877 C295.991399,119.227877 298.120181,118.526346 298.120181,116.276611 C298.120181,113.960351 296.166781,113.264868 291.969694,113.264868 L281.718884,113.264868 C272.278462,113.264868 267.966469,111.015133 267.966469,105.789941 C267.966469,100.111173 272.629227,97.788866 282.468796,97.788866 L305.202009,97.788866 L305.202009,102.433481 L283.738808,102.433481 L283.738808,102.433481 Z M236.482269,97.788866 L253.403666,116.536661 L253.36738,97.788866 L261.864364,97.788866 L261.864364,123.872492 L251.788936,123.872492 L234.002721,104.144973 L233.996674,123.872492 L225.487594,123.872492 L225.487594,97.788866 L236.482269,97.788866 L236.482269,97.788866 Z M193.834058,108.396489 L217.891713,108.396489 L217.891713,112.932246 L193.779629,112.932246 C193.834058,117.619195 196.767181,119.32464 203.619198,119.32464 L217.891713,119.32464 L217.891713,123.872492 L203.220051,123.872492 C198.206528,123.872492 194.354159,123.624537 190.320359,121.580423 C186.062795,119.445593 183.988442,116.028656 183.988442,111.305421 C183.988442,102.082716 190.151024,97.788866 203.449863,97.788866 L217.891713,97.788866 L217.891713,102.336718 L203.619198,102.336718 C197.34171,102.336718 194.178776,104.296165 193.834058,108.396489 L193.834058,108.396489 Z M156.592471,102.433481 C152.050666,102.433481 149.921884,103.449491 149.921884,105.856466 C149.921884,107.749388 151.760378,108.68073 155.388983,108.68073 L166.89771,108.68073 C176.102273,108.68073 180.087691,110.615986 180.087691,116.052847 C180.087691,121.538089 175.424933,123.872492 165.627698,123.872492 L142.495338,123.872492 L142.495338,119.227877 L164.248828,119.227877 C168.857157,119.227877 170.985939,118.526346 170.985939,116.276611 C170.985939,113.960351 169.026492,113.264868 164.829405,113.264868 L154.584642,113.264868 C145.14422,113.264868 140.82618,111.015133 140.82618,105.789941 C140.82618,100.111173 145.488938,97.788866 155.328506,97.788866 L178.067768,97.788866 L178.067768,102.433481 L156.592471,102.433481 L156.592471,102.433481 Z M89.2032187,108.396489 L113.254826,108.396489 L113.254826,112.932246 L89.1427419,112.932246 C89.2032187,117.619195 92.1423892,119.32464 98.9883582,119.32464 L113.254826,119.32464 L113.254826,123.872492 L98.5831639,123.872492 C93.5756883,123.872492 89.7233188,123.624537 85.689519,121.580423 C81.4380029,119.445593 79.3576024,116.028656 79.3576024,111.305421 C79.3576024,102.082716 85.5201841,97.788866 98.8129756,97.788866 L113.254826,97.788866 L113.254826,102.336718 L98.9883582,102.336718 C92.7169184,102.336718 89.5479362,104.296165 89.2032187,108.396489 L89.2032187,108.396489 Z M48.7986964,108.360203 L64.7403699,108.360203 L64.7403699,97.788866 L73.4308801,97.788866 L73.4308801,123.872492 L64.7403699,123.872492 L64.7403699,112.97458 L48.7986964,112.97458 L48.7986964,123.872492 L40.1021385,123.872492 L40.1021385,97.788866 L48.7986964,97.788866 L48.7986964,108.360203 L48.7986964,108.360203 Z M0.163287248,102.373004 L0.163287248,97.8372474 L35.9050515,97.8372474 L35.9050515,102.373004 L22.4913065,102.373004 L22.4913065,123.872492 L13.5226032,123.872492 L13.5226032,102.373004 L0.163287248,102.373004 L0.163287248,102.373004 Z M664.246476,1.83039333 L700.853058,50.0182745 L700.804677,1.83039333 L719.165421,1.83039333 L719.165421,68.8870231 L697.369597,68.8870231 L658.888236,18.1712135 L658.942665,68.8870231 L640.45492,68.8870231 L640.45492,1.83039333 L664.246476,1.83039333 L664.246476,1.83039333 Z M538.472962,34.7055592 C538.472962,59.0716452 552.285853,70.2961316 583.044333,70.2961316 C613.433904,70.2961316 627.645942,59.0716452 627.645942,35.3526605 C627.645942,11.6397236 613.433904,0.512 583.044333,0.512 C553.041813,0.512 538.472962,11.6397236 538.472962,34.7055592 L538.472962,34.7055592 Z M583.044333,12.0086318 C599.614965,12.0086318 607.204798,19.5742743 607.204798,35.3526605 C607.204798,51.1431422 599.614965,58.7087847 583.044333,58.7087847 C566.243889,58.7087847 559.004821,51.1431422 559.004821,34.7962744 C559.004821,19.5742743 566.860752,12.0086318 583.044333,12.0086318 L583.044333,12.0086318 Z M505.960657,68.8930708 L525.651889,68.8930708 L525.651889,1.83039333 L505.960657,1.83039333 L505.960657,68.8930708 Z M412.43335,1.83039333 L412.43335,68.8870231 L431.247669,68.8870231 L431.247669,42.5554425 L453.418449,42.5554425 L473.085491,68.8870231 L494.252356,68.8870231 L471.966671,40.8681409 C483.554018,38.9933614 490.025031,32.3651087 490.025031,21.9993923 C490.025031,7.89621221 479.93146,1.83039333 458.770642,1.83039333 L412.43335,1.83039333 L412.43335,1.83039333 Z M454.283266,13.7806008 C465.48961,13.7806008 470.974852,15.2804244 470.974852,22.1989656 C470.974852,29.0026009 465.48961,30.6899025 454.283266,30.6899025 L431.247669,30.6899025 L431.247669,13.7806008 L454.283266,13.7806008 L454.283266,13.7806008 Z M374.218086,68.8930708 L393.885128,68.8930708 L393.885128,1.83039333 L374.218086,1.83039333 L374.218086,68.8930708 Z M309.205571,13.7806008 C299.37205,13.7806008 294.763721,16.3992444 294.763721,22.5557785 C294.763721,27.4181098 298.749139,29.8492755 306.592975,29.8492755 L331.503351,29.8492755 C351.430443,29.8492755 360.018143,34.7962744 360.018143,48.8087393 C360.018143,62.9119194 349.936667,68.8870231 328.763754,68.8870231 L278.695046,68.8870231 L278.695046,56.9368156 L325.770155,56.9368156 C335.730677,56.9368156 340.345054,55.1648466 340.345054,49.3651255 C340.345054,43.3900217 336.105633,41.6180527 327.015976,41.6180527 L304.845196,41.6180527 C284.428243,41.6180527 275.084583,35.8304269 275.084583,22.3683005 C275.084583,7.81154474 285.178154,1.83039333 306.465973,1.83039333 L355.663816,1.83039333 L355.663816,13.7806008 L309.205571,13.7806008 L309.205571,13.7806008 Z M206.96961,1.83039333 L243.58224,50.0182745 L243.636669,1.65501073 L261.967175,1.5642956 L261.888555,68.8870231 L240.098779,68.8870231 L201.61137,18.1712135 L201.659751,69.0019289 L183.184101,68.8870231 L183.184101,1.83039333 L206.96961,1.83039333 L206.96961,1.83039333 Z M114.694172,29.1054114 L166.746518,29.1054114 L166.746518,40.7774258 L114.573219,40.7774258 C114.694172,52.8183484 121.044232,57.2150087 135.867086,57.2150087 L166.746518,57.2150087 L166.746518,68.8870231 L134.990173,68.8870231 C124.152737,68.8870231 115.812992,68.2278264 107.098292,63.0026345 C97.8816335,57.4992495 93.4003057,48.7119765 93.4003057,36.5742911 C93.4003057,12.8492587 106.723336,1.83039333 135.49213,1.83039333 L166.746518,1.83039333 L166.746518,13.5024077 L135.867086,13.5024077 C122.290053,13.5024077 115.444084,18.5461694 114.694172,29.1054114 L114.694172,29.1054114 Z M34.1209871,13.7806008 C24.2874662,13.7806008 19.6791372,16.3992444 19.6791372,22.5557785 C19.6791372,27.4181098 23.6645556,29.8492755 31.5083912,29.8492755 L56.4127203,29.8492755 C76.3398122,29.8492755 84.9335596,34.7962744 84.9335596,48.8087393 C84.9335596,62.9119194 74.8460363,68.8870231 53.6731231,68.8870231 L3.61046248,68.8870231 L3.61046248,56.9368156 L50.6855713,56.9368156 C60.652141,56.9368156 65.2544224,55.1648466 65.2544224,49.3651255 C65.2544224,43.3900217 61.0270969,41.6180527 51.9313925,41.6180527 L29.7666605,41.6180527 C9.3376115,41.6180527 0,35.8304269 0,22.3683005 C0,7.81154474 10.0875233,1.83039333 31.3874376,1.83039333 L80.5731853,1.83039333 L80.5731853,13.7806008 L34.1209871,13.7806008 L34.1209871,13.7806008 Z"/>
</svg>
